<?xml version="1.0" encoding="UTF-8"?>
<svg id="Layer_1" data-name="Layer 1" xmlns="http://www.w3.org/2000/svg" viewBox="0 0 708.66 708.66">
  <defs>
    <style>
      .cls-1 {
        fill: #130909;
      }
    </style>
  </defs>
  <path class="cls-1" d="M221.33,340.5c-15.54-12.12-32.93-15.2-52.01-13.53-9.79.86-18.94,3.97-27.25,8.93-7.41,4.42-13.05,10.23-17.9,17.34-9.84,14.41-12.73,32.09-12.35,49.46H37.06c-1.59-3.18-.19-6.45-.2-9.62-.09-44.61,20.82-86.36,58.88-110.28,18.19-11.43,38.39-18.58,59.74-20.76l6.9-.7,9.61-.56c4.34-.25,8.13-.25,12.47,0l9.61.57,6.88.68c27.7,2.73,62.15,17.53,81.34,37.75l5,5.27c7.56,7.97,13.44,17.03,18.48,26.85,7.85,15.28,12.03,31.34,14.07,48.35.47,3.94-.34,7.44.73,11.51l.05,120.37h-75.43s-.12-122.64-.12-122.64c-1.57-13.25-4.78-25.5-12.19-36.27-3.34-4.85-6.68-8.91-11.56-12.71Z"/>
  <path class="cls-1" d="M408.57,512.05l-68.09.08.02-249.5-69.63-.04c-1.08,0-1.95-.63-1.88-1.75l.03-126.42,72.6.08.02,126.82c2.09-.78,3.53.05,5.27.06l61.66.13v250.55Z"/>
  <path class="cls-1" d="M477.78,460.78c-3.05.64-5.53.29-8.42.23l-29.95-41.11-.25,41.17h-9.6s0-58.91,0-58.91l8.9.04,28.95,39.82.26-39.71c3.57-.39,6.68-.15,10.13-.15v58.62Z"/>
  <path class="cls-1" d="M585.76,428.67c1.4,16.51-9.51,30.59-25.96,32.17-8.09.78-16.14-.02-24.68.23v-58.93c8.69.31,16.94-.62,25.13.29,14.11,1.58,24.36,12.52,25.52,26.24ZM575.52,431.9c.13-10.52-6.84-20-17.21-20.07l-13.02-.09v39.73s13.02-.09,13.02-.09c10.14-.07,17.08-9.21,17.21-19.48Z"/>
  <path class="cls-1" d="M610.15,461.77c-10.34-2.19-18.16-9.08-17.05-19.4l9.89.14c-.12,4.74,2.79,7.66,6.9,9.11,5.62,1.97,12.22.83,15.65-4.39,2.12-3.22.41-7.39-2.88-9.01-9.06-4.48-27.97-3.25-28.94-18.81-.23-3.78.78-8.02,3.1-11.06,5.04-6.58,13.21-7.26,20.55-6.97,9.9.39,17.72,8.04,17.5,18.18-3.55.25-6.6.27-10.01,0,.03-3.47-1.33-6.15-4.4-7.62-6.35-3.03-16.76-.71-16.83,5.78-.09,7.83,14.61,7.76,23.95,12.1,7.35,3.42,10.52,11.01,8.38,18.73-2.07,7.44-8.41,11.93-15.92,13.09-3.35.52-6.18.94-9.91.15Z"/>
  <path class="cls-1" d="M526.31,451.48c.46,3.36.36,6.21.05,9.57h-34.38s0-58.73,0-58.73c3.64-.41,6.73-.15,10.19-.17v49.3s24.13.03,24.13.03Z"/>
  <path class="cls-1" d="M471.65,497.97l-.09,12.49c0,.71-.26,1.2-.55,1.46-.41.37-1.04.24-2.24.19l-.07-36.19c1.55-.56,2.08.62,2.62,1.57.67,1.18-.37,2.16.07,3.88,3.88-5.03,9.36-7.1,15.02-5.5,5,1.41,8.86,5.87,9.79,11.79,1.04,6.69-3.64,13.72-10.45,15.31-4.98,1.16-10.45-.5-14.1-5ZM493.43,489.4c0-6.09-4.94-11.02-11.02-11.02s-11.02,4.93-11.02,11.02,4.94,11.02,11.02,11.02,11.02-4.93,11.02-11.02Z"/>
  <path class="cls-1" d="M528.22,501.47c0,.79-.99,1.08-1.12,1.35-.22.47-1.23.24-1.51-.5-.61-1.6.5-2.97-.65-4.81-2.65,4.77-7.19,5.83-12.05,5.66-5.91-.2-10.57-4.47-12.02-10.15-1.73-6.8,1.11-12.95,7.15-16.15s12.87-1.26,17.19,4.25c.67-1.85-.7-5.33,1.64-5.33.82,0,1.45.65,1.45,1.75l-.08,23.92ZM525.19,489.41c0-6.09-4.94-11.02-11.02-11.02s-11.02,4.93-11.02,11.02,4.94,11.02,11.02,11.02,11.02-4.93,11.02-11.02Z"/>
  <path class="cls-1" d="M614.13,500.26c12.41,1.11,9.75-8.27,14.19-5.16-1.8,4.35-5.94,7.54-10.23,8.03-6.2.71-10.81-1.79-13.79-7.01-2.58-4.53-2.33-10.07.68-14.62,2.67-4.04,7.86-6.86,13.1-5.96,6.6,1.14,12.75,8.19,10.9,14.97l-23.51.12c.58,4.67,3.54,9.17,8.66,9.63ZM626.58,487.67c-.73-5.23-4.14-8.55-8.57-9.1-6.3-.78-11.99,2.68-12.14,9.23l20.72-.13Z"/>
  <path class="cls-1" d="M577.17,485.14l-.29,16.53c-.02.9-1.32,1.39-1.85,1.46-.66.08-1.32-.96-1.32-1.87l-.09-23.7c0-.75.36-1.17.58-1.46.23-.31,1.5-.44,1.57-.09.3,1.58,0,3.2,1.09,4.5,2.92-4.15,7.42-5.92,11.89-4.81,10.49,2.6,7.96,15.76,8.17,25.6.02.76-.95,1.15-1.11,1.53-.24.55-1.55.24-1.57-.49l-.37-16c-.06-2.6-1.16-5.17-2.92-6.51-2.25-1.71-4.84-1.76-7.78-1.2s-5.94,3.17-6,6.53Z"/>
  <path class="cls-1" d="M667.95,502.03c-3.55,1.88-13.92,2.68-15.99-5.32-.21-.83.13-1.78.86-2.13.53-.26,1.5.66,1.7,1.33,1.84,6.12,10.31,5.32,13.16,3.09,1.31-1.03,2.04-2.59,1.85-4.07-.91-7.04-14.08-2.26-17.03-9.77-.98-2.49-.06-5.35,2.15-7.21,4.29-3.61,10.6-3.5,14.76.27,1.38,1.25,2.73,3.56,1.31,5.22-.67.78-2.17-1.03-2.33-1.86-.92-4.54-11.29-4.18-13.01-.78-4.87,9.59,16.46,3.1,16.98,14.05.15,3.25-1.7,5.76-4.41,7.19Z"/>
  <path class="cls-1" d="M445.27,502.26c-.04,1.22-3.41,1.2-3.57.12-.63-4.18.05-8.14-.29-12.33-2.04.79-9.17.67-11.18.34-.9-.15-1.09-3.1-.25-3.11l11.43-.11c.34-4.02-.34-7.79.28-11.78.16-1.05,3.38-1.05,3.54,0,.6,4-.03,7.75.26,11.79l11.77.04c.2.82.31,2.5-.27,3.1-3.66.56-7.47.4-11.33-.1l-.37,12.05Z"/>
  <path class="cls-1" d="M559.63,496.18c.07,6.04,11.9,2.47,8.67,6.35-.42.51-1.17.57-1.96.58-5.46.08-9.75-3.18-10.13-8.72-.13-1.89-.32-15.6.17-15.2-1.52-1.25-3.01.34-4.32-1.33l6.64-6.63c1.18,1.24.8,2.59.64,4.41,2.25.97,9.11-1.18,9.09,1.62,0,.39-.47,1.37-1,1.38l-8,.08.2,17.45Z"/>
  <path class="cls-1" d="M647.92,478.72c-4.06-.68-8.84,1.78-8.89,6.24l-.19,16.33c0,.8-.92,1.56-1.44,1.73-.58.19-1.86-.83-1.86-1.74l-.03-24.24c0-.62.6-1.08.91-1.18.35-.11,1.15-.13,1.43.44.67,1.37.26,2.59.7,4.2,2.51-5.07,12.36-6.26,11.11-2.71-.15.42-.84,1.08-1.74.93Z"/>
  <path class="cls-1" d="M550.05,478.92c-5.02-1.37-9.69,1.74-10.24,6.73s.05,10.4-.2,15.71c-.05,1.1-.48,1.76-1.41,1.75-.81,0-1.45-.63-1.44-1.77l.11-25.32c0-.38,1.52-.26,1.67.06,1.26,2.68,0,1.28.79,4.45,2.61-3.61,6.49-5.44,11.04-4.56-.03.89.38,1.75-.31,2.94Z"/>
</svg>