<?xml version="1.0" encoding="UTF-8"?>
<svg xmlns="http://www.w3.org/2000/svg" xmlns:xlink="http://www.w3.org/1999/xlink" viewBox="0 0 708.66 708.66">
  <defs>
    <style>
      .cls-1 {
        clip-path: url(#clippath-34);
      }

      .cls-2 {
        clip-path: url(#clippath-38);
      }

      .cls-3 {
        clip-path: url(#clippath-21);
      }

      .cls-4 {
        clip-path: url(#clippath-6);
      }

      .cls-5 {
        clip-path: url(#clippath-7);
      }

      .cls-6 {
        clip-path: url(#clippath-17);
      }

      .cls-7 {
        clip-path: url(#clippath-31);
      }

      .cls-8 {
        clip-path: url(#clippath-15);
      }

      .cls-9 {
        clip-path: url(#clippath-33);
      }

      .cls-10 {
        clip-path: url(#clippath-18);
      }

      .cls-11 {
        clip-path: url(#clippath-4);
      }

      .cls-12 {
        clip-path: url(#clippath-22);
      }

      .cls-13 {
        clip-path: url(#clippath-23);
      }

      .cls-14 {
        clip-path: url(#clippath-9);
      }

      .cls-15 {
        clip-path: url(#clippath-10);
      }

      .cls-16 {
        fill: #fff;
      }

      .cls-17 {
        clip-path: url(#clippath-25);
      }

      .cls-18 {
        clip-path: url(#clippath-27);
      }

      .cls-19 {
        clip-path: url(#clippath-11);
      }

      .cls-20, .cls-21 {
        fill: none;
      }

      .cls-22 {
        clip-path: url(#clippath-36);
      }

      .cls-23 {
        clip-path: url(#clippath-35);
      }

      .cls-24 {
        clip-path: url(#clippath-28);
      }

      .cls-25 {
        clip-path: url(#clippath-1);
      }

      .cls-26 {
        fill: #0b9cd6;
      }

      .cls-27 {
        isolation: isolate;
      }

      .cls-28 {
        clip-path: url(#clippath-5);
      }

      .cls-29 {
        clip-path: url(#clippath-20);
      }

      .cls-30 {
        clip-path: url(#clippath-8);
      }

      .cls-31 {
        clip-path: url(#clippath-3);
      }

      .cls-32 {
        clip-path: url(#clippath-26);
      }

      .cls-33 {
        fill: #b0ce59;
      }

      .cls-34 {
        clip-path: url(#clippath-12);
      }

      .cls-35 {
        clip-path: url(#clippath-14);
      }

      .cls-36 {
        clip-path: url(#clippath-30);
      }

      .cls-37 {
        clip-path: url(#clippath-19);
      }

      .cls-38 {
        mix-blend-mode: multiply;
      }

      .cls-39 {
        clip-path: url(#clippath-32);
      }

      .cls-40 {
        clip-path: url(#clippath-16);
      }

      .cls-41 {
        clip-path: url(#clippath-2);
      }

      .cls-42 {
        clip-path: url(#clippath-29);
      }

      .cls-21 {
        stroke: #b0ce59;
        stroke-miterlimit: 10;
      }

      .cls-43 {
        clip-path: url(#clippath-37);
      }

      .cls-44 {
        clip-path: url(#clippath-13);
      }

      .cls-45 {
        clip-path: url(#clippath-24);
      }

      .cls-46 {
        clip-path: url(#clippath);
      }
    </style>
    <clipPath id="clippath">
      <path id="SVGID" class="cls-20" d="M263.06,359.83"/>
    </clipPath>
    <clipPath id="clippath-1">
      <rect id="SVGID-2" data-name="SVGID" class="cls-20" x="119.67" y="332.85" width="6.53" height="6.04"/>
    </clipPath>
    <clipPath id="clippath-2">
      <rect id="SVGID-3" data-name="SVGID" class="cls-20" x="117.21" y="337.92" width="6.51" height="5.99"/>
    </clipPath>
    <clipPath id="clippath-3">
      <rect id="SVGID-4" data-name="SVGID" class="cls-20" x="113.86" y="348.68" width="6.18" height="5.89"/>
    </clipPath>
    <clipPath id="clippath-4">
      <rect id="SVGID-5" data-name="SVGID" class="cls-20" x="115.26" y="343.21" width="6.39" height="5.93"/>
    </clipPath>
    <clipPath id="clippath-5">
      <rect id="SVGID-6" data-name="SVGID" class="cls-20" x="238.47" y="304.13" width="4.97" height="4.63"/>
    </clipPath>
    <clipPath id="clippath-6">
      <rect id="SVGID-7" data-name="SVGID" class="cls-20" x="203.71" y="279.38" width="5.72" height="6.27"/>
    </clipPath>
    <clipPath id="clippath-7">
      <rect id="SVGID-8" data-name="SVGID" class="cls-20" x="195.32" y="276.69" width="5.92" height="6.2"/>
    </clipPath>
    <clipPath id="clippath-8">
      <rect id="SVGID-9" data-name="SVGID" class="cls-20" x="219.15" y="287.19" width="5.38" height="5.99"/>
    </clipPath>
    <clipPath id="clippath-9">
      <rect id="SVGID-10" data-name="SVGID" class="cls-20" x="226.15" y="292.2" width="5.22" height="5.65"/>
    </clipPath>
    <clipPath id="clippath-10">
      <rect id="SVGID-11" data-name="SVGID" class="cls-20" x="186.27" y="274.86" width="6.41" height="5.99"/>
    </clipPath>
    <clipPath id="clippath-11">
      <rect id="SVGID-12" data-name="SVGID" class="cls-20" x="174.64" y="273.93" width="9.16" height="5.65"/>
    </clipPath>
    <clipPath id="clippath-12">
      <rect id="SVGID-13" data-name="SVGID" class="cls-20" x="252.21" y="325.86" width="4.91" height="2.65"/>
    </clipPath>
    <clipPath id="clippath-13">
      <rect id="SVGID-14" data-name="SVGID" class="cls-20" x="232.61" y="297.88" width="5.07" height="5.17"/>
    </clipPath>
    <clipPath id="clippath-14">
      <rect id="SVGID-15" data-name="SVGID" class="cls-20" x="257.85" y="342.21" width="5.08" height="1.4"/>
    </clipPath>
    <clipPath id="clippath-15">
      <rect id="SVGID-16" data-name="SVGID" class="cls-20" x="255.4" y="333.89" width="4.98" height="2"/>
    </clipPath>
    <clipPath id="clippath-16">
      <rect id="SVGID-17" data-name="SVGID" class="cls-20" x="248.31" y="318.19" width="4.88" height="3.34"/>
    </clipPath>
    <clipPath id="clippath-17">
      <rect id="SVGID-18" data-name="SVGID" class="cls-20" x="243.72" y="310.92" width="4.91" height="4.01"/>
    </clipPath>
    <clipPath id="clippath-18">
      <rect id="SVGID-19" data-name="SVGID" class="cls-20" x="211.67" y="282.91" width="5.54" height="6.19"/>
    </clipPath>
    <clipPath id="clippath-19">
      <rect id="SVGID-20" data-name="SVGID" class="cls-20" x="226.64" y="333.99" width="5.69" height="4.51"/>
    </clipPath>
    <clipPath id="clippath-20">
      <rect id="SVGID-21" data-name="SVGID" class="cls-20" x="181.57" y="302.17" width="2.34" height="5.41"/>
    </clipPath>
    <clipPath id="clippath-21">
      <rect id="SVGID-22" data-name="SVGID" class="cls-20" x="229.03" y="339.12" width="5.69" height="4.1"/>
    </clipPath>
    <clipPath id="clippath-22">
      <rect id="SVGID-23" data-name="SVGID" class="cls-20" x="212.14" y="315.58" width="4.96" height="5.38"/>
    </clipPath>
    <clipPath id="clippath-23">
      <rect id="SVGID-24" data-name="SVGID" class="cls-20" x="134.26" y="313.51" width="4.88" height="8.14"/>
    </clipPath>
    <clipPath id="clippath-24">
      <rect id="SVGID-25" data-name="SVGID" class="cls-20" x="203.52" y="309.37" width="3.93" height="5.38"/>
    </clipPath>
    <clipPath id="clippath-25">
      <rect id="SVGID-26" data-name="SVGID" class="cls-20" x="113.03" y="354.24" width="5.88" height="5.93"/>
    </clipPath>
    <clipPath id="clippath-26">
      <rect id="SVGID-27" data-name="SVGID" class="cls-20" x="186.93" y="303.01" width="3.03" height="5.52"/>
    </clipPath>
    <clipPath id="clippath-27">
      <rect id="SVGID-28" data-name="SVGID" class="cls-20" x="197.77" y="306.48" width="3.2" height="5.28"/>
    </clipPath>
    <clipPath id="clippath-28">
      <rect id="SVGID-29" data-name="SVGID" class="cls-20" x="192.24" y="304.4" width="3.36" height="5.53"/>
    </clipPath>
    <clipPath id="clippath-29">
      <rect id="SVGID-30" data-name="SVGID" class="cls-20" x="216.17" y="319.41" width="5.05" height="5.04"/>
    </clipPath>
    <clipPath id="clippath-30">
      <rect id="SVGID-31" data-name="SVGID" class="cls-20" x="223.91" y="329.23" width="5.53" height="4.72"/>
    </clipPath>
    <clipPath id="clippath-31">
      <rect id="SVGID-32" data-name="SVGID" class="cls-20" x="129.96" y="319.36" width="6.12" height="6.13"/>
    </clipPath>
    <clipPath id="clippath-32">
      <rect id="SVGID-33" data-name="SVGID" class="cls-20" x="126.08" y="323.53" width="6.33" height="6.12"/>
    </clipPath>
    <clipPath id="clippath-33">
      <rect id="SVGID-34" data-name="SVGID" class="cls-20" x="220.83" y="324.77" width="4.94" height="4.46"/>
    </clipPath>
    <clipPath id="clippath-34">
      <rect id="SVGID-35" data-name="SVGID" class="cls-20" x="122.64" y="328.04" width="6.46" height="6.09"/>
    </clipPath>
    <clipPath id="clippath-35">
      <rect id="SVGID-36" data-name="SVGID" class="cls-20" x="231.18" y="345.09" width="5.47" height="3.02"/>
    </clipPath>
    <clipPath id="clippath-36">
      <rect id="SVGID-37" data-name="SVGID" class="cls-20" x="207.95" y="312.26" width="4.63" height="5.49"/>
    </clipPath>
    <clipPath id="clippath-37">
      <rect id="SVGID-38" data-name="SVGID" class="cls-20" x="14.39" y="285.2" width="122.14" height="124.84"/>
    </clipPath>
    <clipPath id="clippath-38">
      <rect id="SVGID-39" data-name="SVGID" class="cls-20" x="173.99" y="276.54" width="89.07" height="83.29"/>
    </clipPath>
  </defs>
  <g class="cls-27">
    <g id="Layer_1" data-name="Layer 1">
      <path class="cls-33" d="M246.51,313.4c1.43,1.99,2.78,4.04,4.04,6.13-1.27-2.1-2.61-4.14-4.04-6.13"/>
      <path class="cls-21" d="M246.51,313.4c1.43,1.99,2.78,4.04,4.04,6.13-1.27-2.1-2.61-4.14-4.04-6.13Z"/>
      <path class="cls-33" d="M123.96,334.19c.29-.5.58-.98.89-1.46-.31.48-.6.96-.89,1.46"/>
      <path class="cls-21" d="M123.96,334.19c.29-.5.58-.98.89-1.46-.31.48-.6.96-.89,1.46Z"/>
      <path class="cls-33" d="M235.87,301.17c1.58,1.51,3.08,3.09,4.55,4.71-1.47-1.62-2.97-3.21-4.55-4.71"/>
      <path class="cls-21" d="M235.87,301.17c1.58,1.51,3.08,3.09,4.55,4.71-1.47-1.62-2.97-3.21-4.55-4.71Z"/>
      <path class="cls-33" d="M199.94,309.36c1.65.7,3.25,1.48,4.82,2.32-1.57-.84-3.17-1.62-4.82-2.32"/>
      <path class="cls-21" d="M199.94,309.36c1.65.7,3.25,1.48,4.82,2.32-1.57-.84-3.17-1.62-4.82-2.32Z"/>
      <path class="cls-33" d="M223.73,327.61c.8,1.01,1.58,2.04,2.31,3.1-.73-1.07-1.52-2.09-2.31-3.1"/>
      <path class="cls-21" d="M223.73,327.61c.8,1.01,1.58,2.04,2.31,3.1-.73-1.07-1.52-2.09-2.31-3.1Z"/>
      <path class="cls-33" d="M215.41,318.96c.88.75,1.73,1.54,2.56,2.34-.84-.8-1.68-1.58-2.56-2.34"/>
      <path class="cls-21" d="M215.41,318.96c.88.75,1.73,1.54,2.56,2.34-.84-.8-1.68-1.58-2.56-2.34Z"/>
      <path class="cls-33" d="M206.16,312.48c1.09.62,2.17,1.27,3.22,1.96-1.05-.69-2.13-1.33-3.22-1.96"/>
      <path class="cls-21" d="M206.16,312.48c1.09.62,2.17,1.27,3.22,1.96-1.05-.69-2.13-1.33-3.22-1.96Z"/>
      <path class="cls-33" d="M241.47,307.04c1.52,1.75,2.97,3.57,4.35,5.43-1.39-1.86-2.83-3.68-4.35-5.43"/>
      <path class="cls-21" d="M241.47,307.04c1.52,1.75,2.97,3.57,4.35,5.43-1.39-1.86-2.83-3.68-4.35-5.43Z"/>
      <path class="cls-33" d="M211.07,315.61c.92.65,1.81,1.31,2.69,2.01-.88-.7-1.77-1.36-2.69-2.01"/>
      <path class="cls-21" d="M211.07,315.61c.92.65,1.81,1.31,2.69,2.01-.88-.7-1.77-1.36-2.69-2.01Z"/>
      <path class="cls-33" d="M219.36,322.61c1.21,1.23,2.38,2.5,3.48,3.83-1.1-1.33-2.27-2.6-3.48-3.83"/>
      <path class="cls-21" d="M219.36,322.61c1.21,1.23,2.38,2.5,3.48,3.83-1.1-1.33-2.27-2.6-3.48-3.83Z"/>
      <path class="cls-33" d="M176.1,304.48c1.93,0,3.83.11,5.71.29-1.88-.18-3.78-.29-5.71-.29"/>
      <path class="cls-21" d="M176.1,304.48c1.93,0,3.83.11,5.71.29-1.88-.18-3.78-.29-5.71-.29Z"/>
      <path class="cls-33" d="M116.34,354.69c.02-.19.05-.39.08-.58-.03.2-.05.39-.08.58"/>
      <path class="cls-21" d="M116.34,354.69c.02-.19.05-.39.08-.58-.03.2-.05.39-.08.58Z"/>
      <path class="cls-33" d="M254.76,327.4c1.14,2.41,2.17,4.88,3.08,7.38-.91-2.51-1.94-4.97-3.08-7.38"/>
      <path class="cls-21" d="M254.76,327.4c1.14,2.41,2.17,4.88,3.08,7.38-.91-2.51-1.94-4.97-3.08-7.38Z"/>
      <path class="cls-33" d="M257.93,334.99c.94,2.58,1.75,5.21,2.45,7.89-.69-2.69-1.51-5.31-2.45-7.89"/>
      <path class="cls-21" d="M257.93,334.99c.94,2.58,1.75,5.21,2.45,7.89-.69-2.69-1.51-5.31-2.45-7.89Z"/>
      <path class="cls-33" d="M117.53,349.37c.08-.31.15-.63.23-.94-.08.31-.15.63-.23.94"/>
      <path class="cls-21" d="M117.53,349.37c.08-.31.15-.63.23-.94-.08.31-.15.63-.23.94Z"/>
      <path class="cls-33" d="M262.12,351.23c.45,2.82.77,5.69.94,8.59-.17-2.9-.48-5.76-.94-8.59"/>
      <path class="cls-21" d="M262.12,351.23c.45,2.82.77,5.69.94,8.59-.17-2.9-.48-5.76-.94-8.59Z"/>
      <path class="cls-33" d="M194.8,307.45c1.34.44,2.65.93,3.94,1.44-1.3-.52-2.6-1.01-3.94-1.44"/>
      <path class="cls-21" d="M194.8,307.45c1.34.44,2.65.93,3.94,1.44-1.3-.52-2.6-1.01-3.94-1.44Z"/>
      <path class="cls-33" d="M250.95,320.19c1.3,2.2,2.51,4.48,3.62,6.79-1.11-2.32-2.32-4.59-3.62-6.79"/>
      <path class="cls-21" d="M250.95,320.19c1.3,2.2,2.51,4.48,3.62,6.79-1.11-2.32-2.32-4.59-3.62-6.79Z"/>
      <path class="cls-33" d="M183.59,305c1.29.15,2.57.34,3.82.58-1.25-.25-2.54-.43-3.82-.58"/>
      <path class="cls-21" d="M183.59,305c1.29.15,2.57.34,3.82.58-1.25-.25-2.54-.43-3.82-.58Z"/>
      <path class="cls-33" d="M189.4,305.99c1.2.27,2.39.58,3.56.92-1.17-.34-2.36-.65-3.56-.92"/>
      <path class="cls-21" d="M189.4,305.99c1.2.27,2.39.58,3.56.92-1.17-.34-2.36-.65-3.56-.92Z"/>
      <path class="cls-33" d="M260.39,342.95c.71,2.71,1.28,5.48,1.73,8.29-.44-2.81-1.02-5.58-1.73-8.29"/>
      <path class="cls-21" d="M260.39,342.95c.71,2.71,1.28,5.48,1.73,8.29-.44-2.81-1.02-5.58-1.73-8.29Z"/>
      <path class="cls-33" d="M208.45,283.24c1.48.62,2.91,1.32,4.35,2.02-1.44-.69-2.87-1.41-4.35-2.02"/>
      <path class="cls-21" d="M208.45,283.24c1.48.62,2.91,1.32,4.35,2.02-1.44-.69-2.87-1.41-4.35-2.02Z"/>
      <path class="cls-33" d="M130.45,325.25c.46-.53.94-1.04,1.41-1.56-.48.51-.95,1.03-1.41,1.56"/>
      <path class="cls-21" d="M130.45,325.25c.46-.53.94-1.04,1.41-1.56-.48.51-.95,1.03-1.41,1.56Z"/>
      <path class="cls-33" d="M200.48,280.39c1.4.43,2.74.96,4.11,1.45-1.37-.49-2.71-1.02-4.11-1.45"/>
      <path class="cls-21" d="M200.48,280.39c1.4.43,2.74.96,4.11,1.45-1.37-.49-2.71-1.02-4.11-1.45Z"/>
      <path class="cls-33" d="M215.99,286.8c1.55.82,3.03,1.73,4.52,2.63-1.49-.9-2.97-1.81-4.52-2.63"/>
      <path class="cls-21" d="M215.99,286.8c1.55.82,3.03,1.73,4.52,2.63-1.49-.9-2.97-1.81-4.52-2.63Z"/>
      <path class="cls-33" d="M115.36,365.22c0-1.78.12-3.53.27-5.27-18.4,11.75-29.51,29.95-33.78,50.09l-67.45-44.82,110.45,73.39c.2.14.42.29.63.42l1.16.78v-.02c3.16,2.04,6.48,3.86,9.9,5.48v-34.02c-12.95-11.13-21.18-27.6-21.18-46.03"/>
      <path class="cls-21" d="M115.36,365.22c0-1.78.12-3.53.27-5.27-18.4,11.75-29.51,29.95-33.78,50.09l-67.45-44.82,110.45,73.39c.2.14.42.29.63.42l1.16.78v-.02c3.16,2.04,6.48,3.86,9.9,5.48v-34.02c-12.95-11.13-21.18-27.6-21.18-46.03Z"/>
      <path class="cls-33" d="M119.21,344.12c.14-.39.28-.78.43-1.17-.14.39-.28.77-.43,1.17"/>
      <path class="cls-21" d="M119.21,344.12c.14-.39.28-.78.43-1.17-.14.39-.28.77-.43,1.17Z"/>
      <path class="cls-33" d="M127,329.58c.37-.52.75-1.02,1.14-1.53-.39.51-.77,1.01-1.14,1.53"/>
      <path class="cls-21" d="M127,329.58c.37-.52.75-1.02,1.14-1.53-.39.51-.77,1.01-1.14,1.53Z"/>
      <path class="cls-33" d="M192.17,278.29c1.28.26,2.51.62,3.77.94-1.26-.31-2.49-.68-3.77-.94"/>
      <path class="cls-21" d="M192.17,278.29c1.28.26,2.51.62,3.77.94-1.26-.31-2.49-.68-3.77-.94Z"/>
      <path class="cls-33" d="M121.36,339.05c.21-.45.42-.9.64-1.34-.22.44-.43.89-.64,1.34"/>
      <path class="cls-21" d="M121.36,339.05c.21-.45.42-.9.64-1.34-.22.44-.43.89-.64,1.34Z"/>
      <path class="cls-33" d="M183.53,276.99c1.05.1,2.05.31,3.09.46-1.03-.14-2.04-.36-3.09-.46"/>
      <path class="cls-21" d="M183.53,276.99c1.05.1,2.05.31,3.09.46-1.03-.14-2.04-.36-3.09-.46Z"/>
      <path class="cls-33" d="M229.74,295.81c1.6,1.28,3.13,2.62,4.63,4-1.52-1.38-3.03-2.73-4.63-4"/>
      <path class="cls-21" d="M229.74,295.81c1.6,1.28,3.13,2.62,4.63,4-1.52-1.38-3.03-2.73-4.63-4Z"/>
      <path class="cls-33" d="M230,337.31c.49.94.95,1.91,1.39,2.89-.44-.98-.9-1.94-1.39-2.89"/>
      <path class="cls-21" d="M230,337.31c.49.94.95,1.91,1.39,2.89-.44-.98-.9-1.94-1.39-2.89Z"/>
      <path class="cls-33" d="M227.24,332.54c.57.89,1.14,1.81,1.67,2.73-.53-.92-1.09-1.84-1.67-2.73"/>
      <path class="cls-21" d="M227.24,332.54c.57.89,1.14,1.81,1.67,2.73-.53-.92-1.09-1.84-1.67-2.73Z"/>
      <path class="cls-33" d="M134.28,321.25c.56-.53,1.13-1.05,1.71-1.55-.57.51-1.15,1.01-1.71,1.55"/>
      <path class="cls-21" d="M134.28,321.25c.56-.53,1.13-1.05,1.71-1.55-.57.51-1.15,1.01-1.71,1.55Z"/>
      <path class="cls-33" d="M263.06,359.83c-4.75-2.89-9.81-5.5-15.28-7.76-4.37-1.81-8.93-3.37-13.62-4.71h0c1.74,5.65,2.69,11.65,2.69,17.87,0,33.55-27.2,60.75-60.74,60.75-.72,0-1.41-.08-2.12-.1v28.03c.22,0,.44.02.66.02,48.97,0,88.68-39.71,88.68-88.69,0-1.82-.16-3.61-.27-5.4"/>
      <path class="cls-21" d="M263.06,359.83c-4.75-2.89-9.81-5.5-15.28-7.76-4.37-1.81-8.93-3.37-13.62-4.71h0c1.74,5.65,2.69,11.65,2.69,17.87,0,33.55-27.2,60.75-60.74,60.75-.72,0-1.41-.08-2.12-.1v28.03c.22,0,.44.02.66.02,48.97,0,88.68-39.71,88.68-88.69,0-1.82-.16-3.61-.27-5.4Z"/>
      <path class="cls-33" d="M223.1,291.01c1.58,1.04,3.1,2.15,4.61,3.29-1.52-1.14-3.03-2.25-4.61-3.29"/>
      <path class="cls-21" d="M223.1,291.01c1.58,1.04,3.1,2.15,4.61,3.29-1.52-1.14-3.03-2.25-4.61-3.29Z"/>
      <path class="cls-33" d="M176.1,304.48c-.72,0-1.41.07-2.12.1h0c.71-.01,1.4-.1,2.12-.1"/>
      <path class="cls-21" d="M176.1,304.48c-.72,0-1.41.07-2.12.1h0c.71-.01,1.4-.1,2.12-.1Z"/>
      <path class="cls-33" d="M232.3,342.23c.5,1.21.93,2.45,1.35,3.69-.42-1.24-.86-2.48-1.35-3.69"/>
      <path class="cls-21" d="M232.3,342.23c.5,1.21.93,2.45,1.35,3.69-.42-1.24-.86-2.48-1.35-3.69Z"/>
      <g class="cls-38">
        <g class="cls-46">
          <path class="cls-21" d="M263.06,359.83h0s0,0,0,0Z"/>
        </g>
      </g>
      <g class="cls-38">
        <g class="cls-25">
          <path class="cls-33" d="M122,337.71c.61-1.2,1.27-2.36,1.96-3.52-.69,1.16-1.35,2.33-1.96,3.52"/>
          <path class="cls-21" d="M122,337.71c.61-1.2,1.27-2.36,1.96-3.52-.69,1.16-1.35,2.33-1.96,3.52Z"/>
        </g>
      </g>
      <g class="cls-38">
        <g class="cls-41">
          <path class="cls-33" d="M119.63,342.95c.52-1.33,1.11-2.62,1.73-3.91-.61,1.29-1.2,2.58-1.73,3.91"/>
          <path class="cls-21" d="M119.63,342.95c.52-1.33,1.11-2.62,1.73-3.91-.61,1.29-1.2,2.58-1.73,3.91Z"/>
        </g>
      </g>
      <g class="cls-38">
        <g class="cls-31">
          <path class="cls-33" d="M116.42,354.1c.3-1.61.68-3.18,1.1-4.74-.43,1.56-.8,3.13-1.1,4.74"/>
          <path class="cls-21" d="M116.42,354.1c.3-1.61.68-3.18,1.1-4.74-.43,1.56-.8,3.13-1.1,4.74Z"/>
        </g>
      </g>
      <g class="cls-38">
        <g class="cls-11">
          <path class="cls-33" d="M117.76,348.42c.42-1.46.92-2.89,1.44-4.31-.52,1.42-1.02,2.84-1.44,4.31"/>
          <path class="cls-21" d="M117.76,348.42c.42-1.46.92-2.89,1.44-4.31-.52,1.42-1.02,2.84-1.44,4.31Z"/>
        </g>
      </g>
      <g class="cls-38">
        <g class="cls-28">
          <path class="cls-33" d="M240.41,305.88c.35.39.71.77,1.05,1.17-.34-.4-.71-.78-1.05-1.17"/>
          <path class="cls-21" d="M240.41,305.88c.35.39.71.77,1.05,1.17-.34-.4-.71-.78-1.05-1.17Z"/>
        </g>
      </g>
      <g class="cls-38">
        <g class="cls-4">
          <path class="cls-33" d="M204.6,281.84c1.28.46,2.59.88,3.85,1.41-1.26-.53-2.56-.95-3.85-1.41"/>
          <path class="cls-21" d="M204.6,281.84c1.28.46,2.59.88,3.85,1.41-1.26-.53-2.56-.95-3.85-1.41Z"/>
        </g>
      </g>
      <g class="cls-38">
        <g class="cls-5">
          <path class="cls-33" d="M195.94,279.22c1.52.38,3.06.72,4.54,1.17-1.48-.45-3.03-.79-4.54-1.17"/>
          <path class="cls-21" d="M195.94,279.22c1.52.38,3.06.72,4.54,1.17-1.48-.45-3.03-.79-4.54-1.17Z"/>
        </g>
      </g>
      <g class="cls-38">
        <g class="cls-30">
          <path class="cls-33" d="M220.51,289.43c.87.52,1.75,1.02,2.59,1.58-.84-.56-1.73-1.05-2.59-1.58"/>
          <path class="cls-21" d="M220.51,289.43c.87.52,1.75,1.02,2.59,1.58-.84-.56-1.73-1.05-2.59-1.58Z"/>
        </g>
      </g>
      <g class="cls-38">
        <g class="cls-14">
          <path class="cls-33" d="M227.71,294.29c.67.5,1.37.99,2.03,1.52-.66-.53-1.36-1.01-2.03-1.52"/>
          <path class="cls-21" d="M227.71,294.29c.67.5,1.37.99,2.03,1.52-.66-.53-1.36-1.01-2.03-1.52Z"/>
        </g>
      </g>
      <g class="cls-38">
        <g class="cls-15">
          <path class="cls-33" d="M186.62,277.45c1.86.24,3.73.48,5.55.84-1.82-.36-3.69-.59-5.55-.84"/>
          <path class="cls-21" d="M186.62,277.45c1.86.24,3.73.48,5.55.84-1.82-.36-3.69-.59-5.55-.84Z"/>
        </g>
      </g>
      <g class="cls-38">
        <g class="cls-19">
          <path class="cls-33" d="M174.64,276.54c3.01,0,5.97.16,8.9.45-2.92-.29-5.89-.45-8.9-.45"/>
          <path class="cls-21" d="M174.64,276.54c3.01,0,5.97.16,8.9.45-2.92-.29-5.89-.45-8.9-.45Z"/>
        </g>
      </g>
      <g class="cls-38">
        <g class="cls-34">
          <path class="cls-33" d="M254.57,326.98c.07.14.14.28.2.41-.06-.14-.13-.28-.2-.41"/>
          <path class="cls-21" d="M254.57,326.98c.07.14.14.28.2.41-.06-.14-.13-.28-.2-.41Z"/>
        </g>
      </g>
      <g class="cls-38">
        <g class="cls-44">
          <path class="cls-33" d="M234.37,299.81c.5.46,1.01.89,1.5,1.37-.49-.48-1-.91-1.5-1.37"/>
          <path class="cls-21" d="M234.37,299.81c.5.46,1.01.89,1.5,1.37-.49-.48-1-.91-1.5-1.37Z"/>
        </g>
      </g>
      <g class="cls-38">
        <g class="cls-35">
          <path class="cls-33" d="M260.38,342.88s0,.04.01.07c0-.02,0-.05-.01-.07"/>
          <path class="cls-21" d="M260.38,342.88s0,.04.01.07c0-.02,0-.05-.01-.07Z"/>
        </g>
      </g>
      <g class="cls-38">
        <g class="cls-8">
          <path class="cls-33" d="M257.85,334.78c.03.07.05.14.07.21-.02-.07-.05-.14-.07-.21"/>
          <path class="cls-21" d="M257.85,334.78c.03.07.05.14.07.21-.02-.07-.05-.14-.07-.21Z"/>
        </g>
      </g>
      <g class="cls-38">
        <g class="cls-40">
          <path class="cls-33" d="M250.55,319.53c.13.22.27.44.39.66-.13-.21-.26-.44-.39-.66"/>
          <path class="cls-21" d="M250.55,319.53c.13.22.27.44.39.66-.13-.21-.26-.44-.39-.66Z"/>
        </g>
      </g>
      <g class="cls-38">
        <g class="cls-6">
          <path class="cls-33" d="M245.82,312.48c.23.31.46.61.69.93-.23-.31-.46-.61-.69-.93"/>
          <path class="cls-21" d="M245.82,312.48c.23.31.46.61.69.93-.23-.31-.46-.61-.69-.93Z"/>
        </g>
      </g>
      <g class="cls-38">
        <g class="cls-10">
          <path class="cls-33" d="M212.8,285.26c1.07.51,2.15.99,3.19,1.53-1.04-.54-2.12-1.02-3.19-1.53"/>
          <path class="cls-21" d="M212.8,285.26c1.07.51,2.15.99,3.19,1.53-1.04-.54-2.12-1.02-3.19-1.53Z"/>
        </g>
      </g>
      <g class="cls-38">
        <g class="cls-37">
          <path class="cls-33" d="M228.91,335.27c.38.68.74,1.36,1.1,2.04-.36-.68-.72-1.36-1.1-2.04"/>
          <path class="cls-21" d="M228.91,335.27c.38.68.74,1.36,1.1,2.04-.36-.68-.72-1.36-1.1-2.04Z"/>
        </g>
      </g>
      <g class="cls-38">
        <g class="cls-29">
          <path class="cls-33" d="M181.82,304.77c.6.06,1.18.15,1.78.22-.59-.07-1.18-.16-1.78-.22"/>
          <path class="cls-21" d="M181.82,304.77c.6.06,1.18.15,1.78.22-.59-.07-1.18-.16-1.78-.22Z"/>
        </g>
      </g>
      <g class="cls-38">
        <g class="cls-3">
          <path class="cls-33" d="M231.4,340.2c.3.68.62,1.35.9,2.04-.28-.68-.6-1.36-.9-2.04"/>
          <path class="cls-21" d="M231.4,340.2c.3.68.62,1.35.9,2.04-.28-.68-.6-1.36-.9-2.04Z"/>
        </g>
      </g>
      <g class="cls-38">
        <g class="cls-12">
          <path class="cls-33" d="M213.76,317.63c.56.44,1.11.88,1.65,1.34-.54-.46-1.09-.9-1.65-1.34"/>
          <path class="cls-21" d="M213.76,317.63c.56.44,1.11.88,1.65,1.34-.54-.46-1.09-.9-1.65-1.34Z"/>
        </g>
      </g>
      <g class="cls-38">
        <g class="cls-13">
          <path class="cls-33" d="M136.53,319.2c-.18.16-.37.33-.54.49.17-.15.37-.3.54-.45v-.04Z"/>
          <path class="cls-21" d="M136.53,319.2c-.18.16-.37.33-.54.49.17-.15.37-.3.54-.45v-.04Z"/>
        </g>
      </g>
      <g class="cls-38">
        <g class="cls-45">
          <path class="cls-33" d="M204.76,311.67c.48.26.93.55,1.4.81-.47-.27-.93-.56-1.4-.81"/>
          <path class="cls-21" d="M204.76,311.67c.48.26.93.55,1.4.81-.47-.27-.93-.56-1.4-.81Z"/>
        </g>
      </g>
      <g class="cls-38">
        <g class="cls-17">
          <path class="cls-33" d="M116.34,354.69c-.31,1.73-.55,3.49-.72,5.26.16-1.78.41-3.53.72-5.26"/>
          <path class="cls-21" d="M116.34,354.69c-.31,1.73-.55,3.49-.72,5.26.16-1.78.41-3.53.72-5.26Z"/>
        </g>
      </g>
      <g class="cls-38">
        <g class="cls-32">
          <path class="cls-33" d="M187.42,305.58c.66.12,1.32.27,1.98.41-.66-.14-1.31-.29-1.98-.41"/>
          <path class="cls-21" d="M187.42,305.58c.66.12,1.32.27,1.98.41-.66-.14-1.31-.29-1.98-.41Z"/>
        </g>
      </g>
      <g class="cls-38">
        <g class="cls-18">
          <path class="cls-33" d="M198.74,308.89c.4.16.8.29,1.19.46-.38-.17-.79-.3-1.19-.46"/>
          <path class="cls-21" d="M198.74,308.89c.4.16.8.29,1.19.46-.38-.17-.79-.3-1.19-.46Z"/>
        </g>
      </g>
      <g class="cls-38">
        <g class="cls-24">
          <path class="cls-33" d="M192.96,306.91c.62.17,1.24.34,1.84.54-.6-.2-1.22-.37-1.84-.54"/>
          <path class="cls-21" d="M192.96,306.91c.62.17,1.24.34,1.84.54-.6-.2-1.22-.37-1.84-.54Z"/>
        </g>
      </g>
      <g class="cls-38">
        <g class="cls-42">
          <path class="cls-33" d="M217.97,321.3c.46.44.94.86,1.38,1.31-.45-.45-.92-.87-1.38-1.31"/>
          <path class="cls-21" d="M217.97,321.3c.46.44.94.86,1.38,1.31-.45-.45-.92-.87-1.38-1.31Z"/>
        </g>
      </g>
      <g class="cls-38">
        <g class="cls-36">
          <path class="cls-33" d="M226.05,330.71c.41.59.8,1.22,1.19,1.83-.39-.61-.78-1.23-1.19-1.83"/>
          <path class="cls-21" d="M226.05,330.71c.41.59.8,1.22,1.19,1.83-.39-.61-.78-1.23-1.19-1.83Z"/>
        </g>
      </g>
      <g class="cls-38">
        <g class="cls-7">
          <path class="cls-33" d="M131.86,323.69c.79-.84,1.6-1.66,2.42-2.45-.82.79-1.63,1.61-2.42,2.45"/>
          <path class="cls-21" d="M131.86,323.69c.79-.84,1.6-1.66,2.42-2.45-.82.79-1.63,1.61-2.42,2.45Z"/>
        </g>
      </g>
      <g class="cls-38">
        <g class="cls-39">
          <path class="cls-33" d="M128.14,328.05c.74-.95,1.51-1.89,2.31-2.79-.8.91-1.57,1.85-2.31,2.79"/>
          <path class="cls-21" d="M128.14,328.05c.74-.95,1.51-1.89,2.31-2.79-.8.91-1.57,1.85-2.31,2.79Z"/>
        </g>
      </g>
      <g class="cls-38">
        <g class="cls-9">
          <path class="cls-33" d="M222.84,326.44c.32.38.59.79.89,1.17-.3-.38-.58-.79-.89-1.17"/>
          <path class="cls-21" d="M222.84,326.44c.32.38.59.79.89,1.17-.3-.38-.58-.79-.89-1.17Z"/>
        </g>
      </g>
      <g class="cls-38">
        <g class="cls-1">
          <path class="cls-33" d="M124.85,332.73c.68-1.08,1.4-2.12,2.15-3.15-.74,1.02-1.47,2.07-2.15,3.15"/>
          <path class="cls-21" d="M124.85,332.73c.68-1.08,1.4-2.12,2.15-3.15-.74,1.02-1.47,2.07-2.15,3.15Z"/>
        </g>
      </g>
      <g class="cls-38">
        <g class="cls-23">
          <path class="cls-33" d="M234.15,347.35c-.14-.48-.34-.94-.5-1.43.16.48.36.94.5,1.43"/>
          <path class="cls-21" d="M234.15,347.35c-.14-.48-.34-.94-.5-1.43.16.48.36.94.5,1.43Z"/>
        </g>
      </g>
      <g class="cls-38">
        <g class="cls-22">
          <path class="cls-33" d="M209.38,314.44c.57.37,1.13.77,1.69,1.17-.56-.4-1.12-.8-1.69-1.17"/>
          <path class="cls-21" d="M209.38,314.44c.57.37,1.13.77,1.69,1.17-.56-.4-1.12-.8-1.69-1.17Z"/>
        </g>
      </g>
      <path class="cls-33" d="M115.63,359.95c.15-1.78.4-3.53.71-5.26.03-.2.05-.39.08-.59.3-1.6.68-3.17,1.11-4.73.08-.31.15-.63.23-.94.43-1.46.91-2.89,1.44-4.3.14-.39.28-.78.43-1.17.53-1.33,1.11-2.62,1.73-3.91.21-.44.43-.89.65-1.33.61-1.2,1.26-2.36,1.96-3.52.29-.49.58-.98.89-1.46.68-1.08,1.4-2.12,2.15-3.15.37-.52.75-1.02,1.14-1.53.74-.96,1.51-1.89,2.31-2.79.47-.53.93-1.04,1.41-1.55.79-.84,1.59-1.66,2.42-2.45.56-.53,1.13-1.04,1.71-1.56.18-.16.36-.32.54-.49v-33.99c-4.79,2.28-9.38,4.94-13.64,8.01v-.03L14.4,365.23l67.45,44.82c4.27-20.16,15.38-38.35,33.78-50.1"/>
      <path class="cls-21" d="M115.63,359.95c.15-1.78.4-3.53.71-5.26.03-.2.05-.39.08-.59.3-1.6.68-3.17,1.11-4.73.08-.31.15-.63.23-.94.43-1.46.91-2.89,1.44-4.3.14-.39.28-.78.43-1.17.53-1.33,1.11-2.62,1.73-3.91.21-.44.43-.89.65-1.33.61-1.2,1.26-2.36,1.96-3.52.29-.49.58-.98.89-1.46.68-1.08,1.4-2.12,2.15-3.15.37-.52.75-1.02,1.14-1.53.74-.96,1.51-1.89,2.31-2.79.47-.53.93-1.04,1.41-1.55.79-.84,1.59-1.66,2.42-2.45.56-.53,1.13-1.04,1.71-1.56.18-.16.36-.32.54-.49v-33.99c-4.79,2.28-9.38,4.94-13.64,8.01v-.03L14.4,365.23l67.45,44.82c4.27-20.16,15.38-38.35,33.78-50.1Z"/>
      <g class="cls-38">
        <g class="cls-43">
          <path class="cls-33" d="M115.63,359.95c.15-1.78.4-3.53.71-5.26.03-.2.05-.39.08-.59.3-1.6.68-3.17,1.11-4.73.08-.31.15-.63.23-.94.43-1.46.91-2.89,1.44-4.3.14-.39.28-.78.43-1.17.53-1.33,1.11-2.62,1.73-3.91.21-.44.43-.89.65-1.33.61-1.2,1.26-2.36,1.96-3.52.29-.49.58-.98.89-1.46.68-1.08,1.4-2.12,2.15-3.15.37-.52.75-1.02,1.14-1.53.74-.96,1.51-1.89,2.31-2.79.47-.53.93-1.04,1.41-1.55.79-.84,1.59-1.66,2.42-2.45.56-.53,1.13-1.04,1.71-1.56.18-.16.36-.32.54-.49v-33.99c-4.79,2.28-9.38,4.94-13.64,8.01v-.03L14.4,365.23l67.45,44.82c4.27-20.16,15.38-38.35,33.78-50.1"/>
        </g>
      </g>
      <path class="cls-33" d="M176.1,304.48c1.93,0,3.83.11,5.71.29.6.05,1.18.16,1.78.23,1.29.15,2.56.34,3.83.58.66.12,1.32.26,1.98.41,1.2.27,2.39.58,3.57.92.62.17,1.23.34,1.83.54,1.34.44,2.65.93,3.94,1.44.4.16.8.29,1.2.46,1.64.7,3.25,1.48,4.81,2.32.48.26.93.55,1.4.82,1.09.63,2.17,1.26,3.22,1.96.57.37,1.13.77,1.69,1.17.92.65,1.81,1.31,2.69,2.01.56.44,1.11.88,1.65,1.34.88.75,1.73,1.54,2.57,2.34.47.44.94.87,1.38,1.31,1.21,1.24,2.38,2.51,3.49,3.84.31.38.58.78.89,1.16.8,1.02,1.58,2.04,2.31,3.1.41.59.8,1.22,1.19,1.83.57.89,1.14,1.81,1.67,2.73.38.68.74,1.36,1.1,2.04.49.94.95,1.91,1.39,2.89.3.68.62,1.35.9,2.04.5,1.21.93,2.45,1.35,3.69.16.48.35.94.5,1.43h0c4.69,1.35,9.25,2.9,13.62,4.72,5.47,2.25,10.53,4.88,15.28,7.76h0c-.18-2.9-.49-5.76-.94-8.59-.44-2.81-1.02-5.58-1.73-8.29,0-.02-.01-.05-.02-.07-.69-2.69-1.51-5.31-2.45-7.89-.03-.07-.05-.14-.08-.21-.91-2.51-1.95-4.97-3.08-7.38-.06-.13-.13-.28-.2-.41-1.11-2.32-2.32-4.59-3.62-6.79-.13-.21-.27-.44-.39-.66-1.27-2.11-2.62-4.14-4.05-6.13-.23-.31-.46-.61-.69-.92-1.38-1.87-2.84-3.68-4.35-5.43-.34-.4-.7-.78-1.05-1.17-1.46-1.62-2.97-3.2-4.54-4.71-.49-.48-1-.92-1.5-1.37-1.51-1.38-3.03-2.72-4.63-4-.66-.52-1.35-1.01-2.03-1.51-1.51-1.13-3.03-2.25-4.62-3.29-.84-.56-1.73-1.05-2.59-1.58-1.49-.91-2.97-1.82-4.52-2.64-1.04-.54-2.12-1.02-3.2-1.53-1.44-.69-2.87-1.4-4.35-2.02-1.26-.51-2.56-.94-3.85-1.4-1.37-.49-2.71-1.02-4.11-1.45-1.49-.45-3.03-.8-4.54-1.17-1.26-.31-2.49-.68-3.77-.94-1.82-.36-3.69-.59-5.55-.85-1.02-.13-2.04-.35-3.09-.45-2.92-.29-5.89-.45-8.89-.45-.22,0-.44.03-.66.03v28.02c.71-.02,1.4-.1,2.12-.1"/>
      <path class="cls-21" d="M176.1,304.48c1.93,0,3.83.11,5.71.29.6.05,1.18.16,1.78.23,1.29.15,2.56.34,3.83.58.66.12,1.32.26,1.98.41,1.2.27,2.39.58,3.57.92.62.17,1.23.34,1.83.54,1.34.44,2.65.93,3.94,1.44.4.16.8.29,1.2.46,1.64.7,3.25,1.48,4.81,2.32.48.26.93.55,1.4.82,1.09.63,2.17,1.26,3.22,1.96.57.37,1.13.77,1.69,1.17.92.65,1.81,1.31,2.69,2.01.56.44,1.11.88,1.65,1.34.88.75,1.73,1.54,2.57,2.34.47.44.94.87,1.38,1.31,1.21,1.24,2.38,2.51,3.49,3.84.31.38.58.78.89,1.16.8,1.02,1.58,2.04,2.31,3.1.41.59.8,1.22,1.19,1.83.57.89,1.14,1.81,1.67,2.73.38.68.74,1.36,1.1,2.04.49.94.95,1.91,1.39,2.89.3.68.62,1.35.9,2.04.5,1.21.93,2.45,1.35,3.69.16.48.35.94.5,1.43h0c4.69,1.35,9.25,2.9,13.62,4.72,5.47,2.25,10.53,4.88,15.28,7.76h0c-.18-2.9-.49-5.76-.94-8.59-.44-2.81-1.02-5.58-1.73-8.29,0-.02-.01-.05-.02-.07-.69-2.69-1.51-5.31-2.45-7.89-.03-.07-.05-.14-.08-.21-.91-2.51-1.95-4.97-3.08-7.38-.06-.13-.13-.28-.2-.41-1.11-2.32-2.32-4.59-3.62-6.79-.13-.21-.27-.44-.39-.66-1.27-2.11-2.62-4.14-4.05-6.13-.23-.31-.46-.61-.69-.92-1.38-1.87-2.84-3.68-4.35-5.43-.34-.4-.7-.78-1.05-1.17-1.46-1.62-2.97-3.2-4.54-4.71-.49-.48-1-.92-1.5-1.37-1.51-1.38-3.03-2.72-4.63-4-.66-.52-1.35-1.01-2.03-1.51-1.51-1.13-3.03-2.25-4.62-3.29-.84-.56-1.73-1.05-2.59-1.58-1.49-.91-2.97-1.82-4.52-2.64-1.04-.54-2.12-1.02-3.2-1.53-1.44-.69-2.87-1.4-4.35-2.02-1.26-.51-2.56-.94-3.85-1.4-1.37-.49-2.71-1.02-4.11-1.45-1.49-.45-3.03-.8-4.54-1.17-1.26-.31-2.49-.68-3.77-.94-1.82-.36-3.69-.59-5.55-.85-1.02-.13-2.04-.35-3.09-.45-2.92-.29-5.89-.45-8.89-.45-.22,0-.44.03-.66.03v28.02c.71-.02,1.4-.1,2.12-.1Z"/>
      <g class="cls-38">
        <g class="cls-2">
          <path class="cls-33" d="M176.1,304.48c1.93,0,3.83.11,5.71.29.6.05,1.18.16,1.78.23,1.29.15,2.56.34,3.83.58.66.12,1.32.26,1.98.41,1.2.27,2.39.58,3.57.92.62.17,1.23.34,1.83.54,1.34.44,2.65.93,3.94,1.44.4.16.8.29,1.2.46,1.64.7,3.25,1.48,4.81,2.32.48.26.93.55,1.4.82,1.09.63,2.17,1.26,3.22,1.96.57.37,1.13.77,1.69,1.17.92.65,1.81,1.31,2.69,2.01.56.44,1.11.88,1.65,1.34.88.75,1.73,1.54,2.57,2.34.47.44.94.87,1.38,1.31,1.21,1.24,2.38,2.51,3.49,3.84.31.38.58.78.89,1.16.8,1.02,1.58,2.04,2.31,3.1.41.59.8,1.22,1.19,1.83.57.89,1.14,1.81,1.67,2.73.38.68.74,1.36,1.1,2.04.49.94.95,1.91,1.39,2.89.3.68.62,1.35.9,2.04.5,1.21.93,2.45,1.35,3.69.16.48.35.94.5,1.43h0c4.69,1.35,9.25,2.9,13.62,4.72,5.47,2.25,10.53,4.88,15.28,7.76h0c-.18-2.9-.49-5.76-.94-8.59-.44-2.81-1.02-5.58-1.73-8.29,0-.02-.01-.05-.02-.07-.69-2.69-1.51-5.31-2.45-7.89-.03-.07-.05-.14-.08-.21-.91-2.51-1.95-4.97-3.08-7.38-.06-.13-.13-.28-.2-.41-1.11-2.32-2.32-4.59-3.62-6.79-.13-.21-.27-.44-.39-.66-1.27-2.11-2.62-4.14-4.05-6.13-.23-.31-.46-.61-.69-.92-1.38-1.87-2.84-3.68-4.35-5.43-.34-.4-.7-.78-1.05-1.17-1.46-1.62-2.97-3.2-4.54-4.71-.49-.48-1-.92-1.5-1.37-1.51-1.38-3.03-2.72-4.63-4-.66-.52-1.35-1.01-2.03-1.51-1.51-1.13-3.03-2.25-4.62-3.29-.84-.56-1.73-1.05-2.59-1.58-1.49-.91-2.97-1.82-4.52-2.64-1.04-.54-2.12-1.02-3.2-1.53-1.44-.69-2.87-1.4-4.35-2.02-1.26-.51-2.56-.94-3.85-1.4-1.37-.49-2.71-1.02-4.11-1.45-1.49-.45-3.03-.8-4.54-1.17-1.26-.31-2.49-.68-3.77-.94-1.82-.36-3.69-.59-5.55-.85-1.02-.13-2.04-.35-3.09-.45-2.92-.29-5.89-.45-8.89-.45-.22,0-.44.03-.66.03v28.02c.71-.02,1.4-.1,2.12-.1"/>
        </g>
      </g>
      <path class="cls-16" d="M138.49,317.59c-.67.52-1.32,1.06-1.97,1.61v.04c.65-.56,1.29-1.12,1.97-1.65"/>
      <path class="cls-26" d="M175.73,331.47c-.59,0-1.16.06-1.74.09-16.73.9-30.02,14.71-30.02,31.66s13.3,30.77,30.02,31.67c.58.03,1.15.09,1.74.09,17.54,0,31.75-14.22,31.75-31.76s-14.22-31.75-31.75-31.75"/>
      <path class="cls-26" d="M278.26,360.85v-16.15h55.23c19.56,0,29.34,10.17,29.34,30.5v44.87c0,20.33-9.78,30.5-29.34,30.5h-34.52c-19.56,0-29.34-10.17-29.34-30.5v-.37c0-20.09,9.78-30.14,29.34-30.14h37.97v16.14h-37.97c-9.21,0-13.81,4.67-13.81,13.99v.37c0,9.57,4.6,14.35,13.81,14.35h34.52c9.2,0,13.81-4.78,13.81-14.35v-44.87c0-9.57-4.61-14.35-13.81-14.35h-55.23Z"/>
      <rect class="cls-26" x="380.95" y="299.84" width="15.53" height="150.73"/>
      <path class="cls-26" d="M414.61,299.84h20.7v21.89h-20.7v-21.89ZM417.37,344.7h15.53v105.87h-15.53v-105.87Z"/>
      <rect class="cls-26" x="453.43" y="299.84" width="15.53" height="150.73"/>
      <path class="cls-26" d="M571.66,434.41v16.15h-55.23c-19.56,0-29.33-10.17-29.33-30.5v-44.86c0-20.33,9.77-30.5,29.33-30.5h34.52c19.56,0,29.34,10.17,29.34,30.5v.36c0,20.1-9.78,30.14-29.34,30.14h-37.98v-16.14h37.98c9.2,0,13.81-4.66,13.81-13.99v-.36c0-9.56-4.61-14.35-13.81-14.35h-34.52c-9.21,0-13.81,4.79-13.81,14.35v44.86c0,9.57,4.6,14.35,13.81,14.35h55.23Z"/>
      <path class="cls-26" d="M681.25,434.41v16.15h-55.23c-19.56,0-29.34-10.17-29.34-30.5v-44.86c0-20.33,9.78-30.5,29.34-30.5h34.52c19.56,0,29.34,10.17,29.34,30.5v.36c0,20.1-9.78,30.14-29.34,30.14h-37.98v-16.14h37.98c9.21,0,13.8-4.66,13.8-13.99v-.36c0-9.56-4.59-14.35-13.8-14.35h-34.52c-9.21,0-13.81,4.79-13.81,14.35v44.86c0,9.57,4.6,14.35,13.81,14.35h55.23Z"/>
    </g>
  </g>
</svg>