<?xml version="1.0" encoding="UTF-8"?>
<svg id="Layer_1" data-name="Layer 1" xmlns="http://www.w3.org/2000/svg" viewBox="0 0 708.66 708.66">
  <g>
    <path d="M442.22,421.71c-17.21,16.2-42.42,21.49-63.98,17.8-31.38-5.36-55.29-30.21-61.58-58.96-7.23-33.09,7.35-65.17,33.92-81.83,28.52-17.88,64.17-15.56,90.49,5.6l-27.51,27.92c-16.78-11.39-38.39-7.98-51.01,6.93-12.24,14.45-11.98,36.11.98,50.29,12.98,14.21,34.78,16.99,51.24,4.94l27.45,27.3Z"/>
    <g>
      <polygon points="580.4 440.08 539.91 439.98 539.77 381.97 496.59 381.87 496.49 439.92 456.05 439.99 456 288.29 496.46 288.17 496.63 344.57 539.62 344.58 539.86 288.3 580.38 288.13 580.4 440.08"/>
      <polygon points="669.56 439.91 628.91 440.12 628.73 320.77 598.67 320.53 598.6 288.26 698.54 288.14 698.6 320.3 669.55 320.77 669.56 439.91"/>
    </g>
  </g>
  <g>
    <polygon points="119.51 405.2 119.61 440.12 28.03 440.08 28.02 288.28 68.29 288.22 68.32 405.08 119.51 405.2"/>
    <g>
      <polygon points="221.52 381.55 178.93 381.89 179.09 405.06 239.04 405.26 238.92 440.1 137.94 439.95 137.91 288.18 240.34 288.18 240.5 320.48 178.9 320.73 178.91 344.78 221.51 345.09 221.52 381.55"/>
      <rect x="256.93" y="288.11" width="40.01" height="152.02"/>
    </g>
  </g>
</svg>