<?xml version="1.0" encoding="UTF-8"?>
<svg id="Layer_1" data-name="Layer 1" xmlns="http://www.w3.org/2000/svg" viewBox="0 0 708.66 708.66">
  <polygon points="228.11 480.44 223.42 480.51 215.48 470.58 215.34 480.36 210.69 480.46 210.71 463.13 215.19 463.11 223.28 473.27 223.43 463.07 228.14 463.16 228.11 480.44"/>
  <path d="M480.22,471.84c0,5.24-4.25,9.49-9.5,9.49s-9.5-4.25-9.5-9.49,4.25-9.49,9.5-9.49,9.5,4.25,9.5,9.49ZM475.45,471.77c0-2.6-2.11-4.71-4.72-4.71s-4.72,2.11-4.72,4.71,2.11,4.71,4.72,4.71,4.72-2.11,4.72-4.71Z"/>
  <path d="M611,474.69l-3.69-.2.03-3.84,8.89.06c.38,2.71-.22,5.45-1.93,7.5s-4.56,2.91-7.48,2.82c-4.27-.14-7.72-2.72-8.55-6.9-.62-3.12,0-6.18,2.04-8.47,1.91-2.13,4.93-3.25,8.01-2.96s5.88,1.85,6.94,4.93l-4.19,1.61c-1.1-1.62-2.09-2.47-3.61-2.53-1.35-.05-3.01.72-3.68,2.06-.99,1.97-1.04,4.36-.01,6.33.62,1.18,2.24,2.07,3.32,2.1,1.67.05,3.03-.35,3.93-2.51Z"/>
  <path d="M81.12,480.34c-2.97.32-5.53.18-8.28.09l.07-17.39h6.6c4.66,0,8.44,3.39,8.84,7.83s-2.39,8.94-7.23,9.47ZM77.66,476.44c4.02.57,6.1-1.93,5.83-5.15-.22-2.66-2.58-4.64-5.84-4.08v9.23Z"/>
  <path d="M171.1,471.08c2.44,1.02,3.2,3.04,2.89,5.56-.23,1.86-2.19,3.75-4.63,3.77l-8.86.08-.04-17.45,7.54.03c1.71,0,3.66,1.1,4.13,2.33.76,1.98.69,3.74-1.03,5.69ZM165.69,469.77c.74.17,2.28-.26,2.4-.8.09-.45-.07-1.47-.38-1.8s-1.41-.48-2-.39c-.81.12-.81,2.82-.01,3ZM168.7,476.41c.41-.18.77-1.5.55-1.84-.91-1.42-2.39-1.3-4.04-1.2v3.59c1.2-.08,2.78-.23,3.49-.55Z"/>
  <path d="M587.82,480.39l-4.74.16-.07-7.17-6.25.02-.08,7.04-4.59.02v-17.29s4.57-.12,4.57-.12l.09,6.55,6.26.09.1-6.53c1.45-.06,3.09-.03,4.71.11v17.12Z"/>
  <polygon points="262.79 480.46 258.05 480.55 257.97 473.49 251.82 473.43 251.71 480.49 247.13 480.46 247.11 463.15 251.71 463.02 251.75 469.56 257.97 469.71 258.04 463.18 262.77 463.12 262.79 480.46"/>
  <path d="M185.41,480.51l-4.19-6.41-.11,6.35h-4.67s.09-17.35.09-17.35l7.61-.04c2.8-.02,4.96,1.9,5.37,4.32.46,2.67-.75,5.2-3.48,6.2l4.94,6.84-5.56.09ZM184.36,467.59c-.86-.63-2.06-.83-3.05-.85v4c1.41-.14,2.38-.3,2.99-.72.47-.33.54-2.08.06-2.43Z"/>
  <polygon points="634.32 480.45 629.72 480.49 629.64 473.49 623.52 473.4 623.38 480.51 618.74 480.48 618.71 463.15 623.43 463.1 623.49 469.62 629.59 469.67 629.71 463.02 634.29 463.09 634.32 480.45"/>
  <path d="M207.58,463.02l-.09,12.4c-.03,3.91-4.04,5.54-7.45,5.6-4.4.08-7.67-2.45-7.66-6.86l.03-10.9,4.69-.16.14,11.12c.02,1.33,1.47,2.54,2.55,2.64,1.48.13,3.04-.99,3.05-2.67l.06-11.09,4.69-.08Z"/>
  <path d="M380.75,477.74l-6.02-.04-1.27,2.83-5.03-.09,6.67-17.33h5.05s6.68,17.3,6.68,17.3l-5.07.11-1.02-2.78ZM379.57,473.93l-1.96-4.77-1.72,4.78h3.69Z"/>
  <path d="M100.74,477.63h-6.36s-.85,2.81-.85,2.81h-5.2s6.58-17.35,6.58-17.35h5.23s6.58,17.31,6.58,17.31l-5.04.09-.93-2.86ZM99.42,473.88l-1.89-4.96-1.84,4.96h3.73Z"/>
  <path d="M682.18,477.77l-6.22-.17-1.21,2.84-4.98-.05,6.58-17.27,5.15-.12,6.66,17.27c-1.62.17-3.22.22-4.87.22l-1.1-2.73ZM680.78,473.93l-1.86-5.27-1.65,5.24,3.51.03Z"/>
  <path d="M33.47,477.76l-6.43-.1-1.2,2.8-4.93-.08,6.7-17.24,5.06-.06,6.63,17.16c-1.19.25-3.51.32-4.62.11-.53-.1-.91-1.46-1.21-2.59ZM31.93,473.94l-1.84-4.87-1.68,4.89,3.52-.02Z"/>
  <path d="M325.65,474.73h-2.72s-.11,5.8-.11,5.8l-4.61-.06-.05-17.38h7.95c3.33,0,5.49,2.54,5.56,5.64.08,3.6-2.18,6.01-6.01,6ZM326.31,467.58c-.71-.73-2.67-.9-3.32-.55l-.03,3.79c.87.12,2.32.02,3.06-.29.67-.29,1.01-2.2.29-2.95Z"/>
  <path d="M313.02,480c-3.56,1.79-7.47,1.07-10.31-1.21l1.94-3.5c1.64.88,3.04,1.62,4.53,1.73.53.04,1.63-.87,1.68-1.35.25-2.22-3.93-1.77-6.35-3.98-1.56-1.43-1.29-3.88-.59-5.62,1.66-4.17,7.42-4.16,11.16-1.93l-1.81,3.58c-1.77-1.36-4.63-1.53-4.86.02-.29,1.95,3.73,1.6,5.9,3.58,2.56,2.33,1.89,7.08-1.27,8.67Z"/>
  <polygon points="343.7 473.64 338.4 473.71 338.61 476.6 343.9 476.51 343.9 480.47 333.69 480.48 333.68 463.02 343.81 463.05 343.88 466.96 338.51 467.07 338.47 469.63 343.63 469.77 343.7 473.64"/>
  <polygon points="531.24 473.62 526.1 473.76 526.09 476.5 531.58 476.55 531.57 480.49 521.22 480.51 521.3 463.04 531.49 463.06 531.55 466.93 526.12 467.08 526.02 469.65 531.19 469.74 531.24 473.62"/>
  <path d="M668.32,473.6l-4.85.12c-.56.19-.61,1.95-.37,2.71l5.35.19.03,3.87-10.2.06-.03-17.51,10.24-.02.03,3.94-5.51.13v2.54s5.31.08,5.31.08v3.88Z"/>
  <polygon points="518.24 473.67 513.21 473.73 513.05 476.41 518.42 476.53 518.52 480.5 508.29 480.49 508.24 463.07 518.33 463 518.46 467 513.04 467.11 513.21 469.65 518.15 469.73 518.24 473.67"/>
  <path d="M351.52,474.45c1.8,2.81,5.12,2.48,7.86.29l.11,5.29c-3.78,1.67-8.19,1.21-11.15-1.82-3.2-3.28-3.3-8.23-.76-11.73s7.39-4.91,11.8-2.86v5.18c-2.39-1.79-4.71-2.13-6.71-.75-1.79,1.23-2.54,4.21-1.14,6.4Z"/>
  <path d="M459.11,468.47c-2.84-1.51-5.26-1.85-7.14-.08s-1.87,4.95-.33,6.59c2.06,2.19,4.85,1.82,7.53-.22l.03,5.24c-4.1,1.91-8.91,1.02-11.73-2.52s-2.41-8.32.29-11.5,7.22-4.34,11.45-2.4l-.11,4.89Z"/>
  <path d="M243.97,474.81l.14,5.27c-4.68,2.01-9.97.55-12.49-3.86-2.04-3.57-1.15-8,1.58-10.82s6.92-3.71,10.82-1.84c.2,1.6.2,3.5.07,5.2-2.29-1.76-5-2.2-6.9-.66-2.08,1.68-2.27,4.86-.71,6.7,1.86,2.2,4.81,2.32,7.5.01Z"/>
  <path d="M437.34,463.28l-6.26,9.19-.11,8.02-4.7-.1-.11-7.97-6.1-9.26,5.34-.1,3.24,4.8,3.21-4.7c1.46-.09,3.18-.04,5.5.12Z"/>
  <polygon points="505.26 469.78 505.15 473.64 500.3 473.7 500.3 480.51 495.52 480.48 495.45 463.05 505.6 463.02 505.63 466.92 500.43 467.04 500.28 469.61 505.26 469.78"/>
  <path d="M121.6,463.4l-6.13,9.1-.15,7.98-4.69-.06-.13-7.93-6.06-9.33,5.32-.02,3.33,4.88,3.08-4.92c1.69-.03,2.7-.02,5.43.31Z"/>
  <polygon points="492.57 469.75 492.56 473.65 487.51 473.74 487.34 480.5 482.73 480.46 482.74 463.06 492.96 463.01 493.02 466.93 487.53 467.03 487.5 469.68 492.57 469.75"/>
  <polygon points="415.72 480.48 410.94 480.41 410.93 467.03 407.3 466.98 407.35 463.04 419.38 463.04 419.4 466.91 415.73 467.01 415.72 480.48"/>
  <polygon points="652.7 480.42 647.91 480.46 647.85 467.19 644.16 466.91 644.24 463.03 656.28 463.04 656.35 466.99 652.67 467.15 652.7 480.42"/>
  <polygon points="51.11 476.55 51.19 480.51 40.95 480.49 40.93 463.1 45.64 463.1 45.68 476.45 51.11 476.55"/>
  <polygon points="398.77 476.53 398.74 480.49 388.49 480.58 388.51 463.16 393.25 463.06 393.27 476.45 398.77 476.53"/>
  <path d="M63.3,476.49l-.08,4h-10.16s.03-17.21.03-17.21c1.47-.12,2.82-.14,4.63-.06l.14,13.21,5.44.06Z"/>
  <polygon points="405.41 480.46 400.7 480.47 400.64 463.23 405.35 463.07 405.41 480.46"/>
  <rect x="584.52" y="469.36" width="17.48" height="4.8" transform="translate(119.89 1063.73) rotate(-89.84)"/>
  <rect x="362.17" y="463.03" width="4.8" height="17.49" transform="translate(-.51 .39) rotate(-.06)"/>
  <rect x="138.61" y="461.58" width="3.06" height="18.95"/>
  <path d="M284.54,479.94c0,.86-2.87.86-2.87.11l-.09-18.19c.88-.14,1.86-.15,2.97-.09v18.17Z"/>
  <rect x="549.94" y="461.66" width="2.91" height="18.91"/>
  <g>
    <g>
      <path d="M51.82,341.96c1.55,5.59,2.23,10.32,3.22,15.52l2.84-15.27c1.43,5.39,2.2,10.1,3.05,15.22l2.73-15.59c1.48,6.78,2.4,12.91,3.42,19.87l-46.44.02c.81-6.65,1.39-12.67,2.76-19.5l3.17,14.82,2.7-15.18,2.88,15.12,2.6-15.08,2.95,14.46c.99-5.07,1.46-9.36,2.79-14.56l2.8,15.21,2.75-15.12c1.47,5.49,2.04,10.18,3.07,15.57l2.7-15.52Z"/>
      <path d="M57.89,412.29l3.07,15.09,2.81-15.23,3.33,19.85H20.51s2.71-19.64,2.71-19.64l3.31,14.79,2.65-14.7,2.95,14.64,2.52-15.14,2.97,14.7,2.73-14.53,2.88,14.99,2.84-14.71c1.45,5.06,1.82,9.68,2.99,15.07l2.83-15.59,3.13,15.67,2.86-15.27Z"/>
      <path d="M57.89,365.59c1.41,5.38,2.13,10.1,3.02,15.04l2.79-14.88c1.49,6.75,2.32,12.51,3.35,19.3l-46.43.02c.88-6.61,1.41-12.66,2.82-19.51l3.12,14.78,2.61-14.65c1.36,5.15,2.1,9.74,2.93,14.66l2.57-15.09c1.37,5.29,2.02,9.7,2.97,14.85l2.73-14.59c1.3,5.47,2,10.21,2.88,15.29l2.89-15.45,2.99,15.46,2.71-15.56c1.36,5.37,2.15,10.27,3.2,15.62l2.84-15.27Z"/>
      <path d="M57.92,317.53c1.34,5.25,2.12,9.77,3.03,14.78l2.69-15.11c1.55,6.68,2.4,12.82,3.39,19.52H20.68c.81-6.5,1.49-12.48,2.71-19.17l3.14,14.31,2.63-14.32c1.38,5.06,2.04,9.47,2.98,14.37l2.62-14.72c1.29,5.15,1.97,9.4,2.94,14.48l2.68-14.34c1.38,5.03,2.02,9.7,2.92,14.97.84-4.97,1.55-9.64,2.81-15.04,1.46,5.14,1.95,9.96,2.99,15.1l2.8-15.19c1.39,5.48,2.15,10.1,3.11,15.18l2.9-14.81Z"/>
      <path d="M46.2,294.57c1.38,5.17,1.95,9.61,2.94,15.1.92-4.92,1.62-9.77,2.86-14.87,1.43,5.49,2.15,10.08,3.04,15.07l2.79-15.1c1.38,4.97,2.12,9.46,3.18,14.58l2.65-15.08c1.57,6.73,2.45,12.86,3.41,19.59H20.71c.76-6.49,1.42-12.64,2.73-19.61l3.1,15.04,2.67-14.59c1.3,5.06,2.06,9.45,2.94,14.26l2.65-14.65,3.06,14.67c.79-4.9,1.46-9.39,2.59-14.6,1.3,5.24,2.03,9.96,2.89,15.02l2.88-14.82Z"/>
      <path d="M20.72,408.4c.63-6.54,1.42-12.68,2.6-19.39l3.15,14.32,2.7-14.25c1.3,5.19,2.05,9.58,2.93,14.62.8-4.94,1.48-9.6,2.65-14.68,1.33,5.22,1.97,9.49,2.87,14.34l2.73-14.59,2.9,15.01,2.78-15.15,3.06,15.18,2.75-15.24,3.16,15.59,2.93-15.2,3,14.77,2.74-15.11c1.48,6.73,2.34,12.78,3.41,19.72l-46.36.05Z"/>
      <g>
        <path d="M46.24,247.63c1.24,4.96,1.84,9.35,2.88,14.62l2.82-14.79c1.33,5.41,2.08,9.94,3.08,15.24l2.99-15.13,3.01,14.06,2.69-14.15c1.5,6.45,2.39,12.56,3.36,19.45l-46.34-.02c.83-6.75,1.48-12.56,2.75-19.35l3.09,14.69,2.73-14.74,2.97,13.8,2.52-13.77,2.95,13.51,2.74-13.53,2.85,14.7c.93-5.01,1.48-9.36,2.9-14.6Z"/>
        <path d="M63.73,270.41c1.49,6.63,2.36,12.58,3.34,19.32l-46.34.03c.71-6.47,1.45-12.58,2.76-19.29l3.08,14.7,2.72-14.72,2.93,14.05,2.6-14.12c1.29,5.07,1.92,9.17,2.9,14.13,1.04-5.16,1.53-9.61,2.86-14.49l2.77,15.1c.92-5.25,1.57-9.9,2.83-15.07,1.29,5.26,1.93,9.83,2.94,15.14l2.9-14.65,3.04,14.88,2.93-15.07,3.01,14.77,2.73-14.73Z"/>
      </g>
    </g>
    <g>
      <path d="M91.21,336.47l4.98,11.14c-3.67-2.61-6.7-5.45-10.36-8.4,2.2,4.39,4.39,7.87,6.48,12.7l-10.25-8.64,5.66,12.47-10.13-8.44,5.59,11.99-11.92-11.24c-.3-.28-.78-.95-.96-1.26s.53-1.22.85-1.47l31.27-25.14c-3.86-4.62-7.2-8.37-11.29-12.55l5.81,13.21-8.84-7.89,4.67,11.88-8.58-7.43c1.05,3.57,2.46,6.64,3.98,10.22l-7.69-5.5,2.92,7.22-6.64-3.77,1.68,8.22-5.02-5.31,15.93-22.76c1.63-2.33,4.26-3.84,6.42-5.73l-1.79,8.74,6.94-5.61-3.33,9.68,7.99-6.82c-1.26,4.01-2.6,6.99-4.01,10.45l8.5-7.47-2.81,9.48,7.01-5.9-2.38,9.92,7.45-6.93-3.81,11.15,8.49-7.53-2.58,9.43,7.2-6.48c-1.14,4.19-2.68,7.23-4.33,10.79l-3.22,6.96-7.61-7.87c-2.7-2.79-6.09-4.41-9.88-6.64l6.03,12.71-9.89-8.2,5.63,11.93-10.62-9.49c2.04,4.02,4.13,7.36,6.04,11.88-3.61-2.44-5.92-4.89-9.6-7.69Z"/>
      <path d="M134.33,289.15l10.69-12.09-5.58,14.6,10.17-10.63-4.88,13.42,9.59-9.96c-2.53,6.63-5.43,12.4-8.23,18.53l-14.89-9.93-22.42-15.27,12.5-15.95c-.89,5.1-3.57,8.58-4.83,13.77l10.22-10.84-5.69,14.26,9.73-10.31c-1.46,4.89-3.56,9.09-5.25,13.59l9.66-11.15c-1.19,5.26-3.49,9.08-5.08,14.17l9.83-10.84c-1.59,5.33-3.57,9.68-5.55,14.63Z"/>
      <path d="M120.81,307.9l9.91-10.71-4.91,13.44,9.85-10.26-4.85,13.47,9.75-10.71c-2.37,6.44-5.13,12.08-8.15,18.63l-12.25-8.15-25.16-17.2,12.36-15.23c-1.29,5.14-3.38,8.98-4.92,13.98l9.95-10.76c-1.21,4.98-3.31,8.69-4.94,13.55l9.68-10.48-5.22,13.64,9.25-10.49c-1.17,4.85-3.18,8.85-4.93,13.85l9.65-10.69-5.06,14.14Z"/>
      <path d="M152.4,254.41c-1.18,4.72-3.07,8.23-4.58,13.08l9.52-9.56-4.93,13.05,9.7-10.23-4.73,13.54,9.43-9.87-7.55,17.39-36.87-25.32c3.02-4.01,5.46-7.25,8.65-11.05l-1.17,8.21,8.97-7.97-3.03,9.73,7.63-7.22c-1.03,4.66-3.23,7.98-4.63,12.67l9.07-9.85-4.83,13.2,9.35-9.8Z"/>
      <path d="M103.83,356.73l5.49,11.68c-4.08-2.57-6.43-5.57-10.15-8.34l5.76,12.24-10.26-8.73,6.14,13.12-10.9-9.78,5.91,12.55c-4.99-3.94-8.71-8.02-13.14-12.65l35.14-28.38,8.93,15.89-10.5-8.48,6.14,12.58c-4-2.62-6.66-5.61-10.35-8.82l6.13,12.27-9.91-8.08,5.89,11.65-10.3-8.69Z"/>
      <path d="M116.45,374.12c1.77,4.32,4.32,7.63,5.76,12.15l-10.26-8.94,5.44,12.15-9.94-8.25,5.91,12.71-10.42-9.14,5.43,12.28c-4.79-4.16-8.52-8.23-13.18-12.82l35.31-28.41c3.03,5.1,6,10.03,8.79,15.6l-10.3-8.27,6.28,13.01-10.21-8.76,5.57,11.74-10.06-8.53,5.8,11.7-9.92-8.21Z"/>
      <path d="M128.87,392.61l6.07,12.14-10.44-8.65,5.42,11.86-9.86-8.36,5.84,12.77-10.83-9.4c1.98,4.27,4.19,7.59,5.8,12.42-4.58-3.86-8.62-8.06-12.93-12.45l35.24-28.2,9.01,16.46-10.25-9.01,5.51,12.14-9.85-8.13,5.83,11.71-9.94-8.51,5.45,11.25-10.09-8.06Z"/>
      <path d="M142.84,411.62l5.49,12-10.72-9.38,6.68,13.48-10.69-9.56,4.86,13.13-9.59-9.1,3.61,9.19-10.72-9.73,11.38-9.39,23.57-18.79c3.13,6.15,6.15,11.45,8.74,17.94l-9.5-9.95,5.41,11.95-9.95-8.31,5.53,11.71-9.64-8.49,5.44,11.5-9.9-8.19Z"/>
      <path d="M167.11,431.86l-7.5-7.08,2.25,7.29-6.55-2.89-.55,2.77c-3.18.08-6.1.15-9.97-.24l25.54-21.41,8.22,19.35c-3.77-3.62-6.15-7.4-9.52-11.24l3.81,13.34-8.6-9.98,2.89,10.1Z"/>
      <path d="M165.47,246.31l-.08,6.89,6.15-6.94-.34,9.1c2.94-3.02,5.67-5.96,9.05-8.82l-8.04,18.48-24.94-18.89,7.55-.34.94,2.71,4.6-2.25-.66,5.98,5.77-5.93Z"/>
    </g>
  </g>
  <path d="M306.69,387.72l-3.55-18.78-3.53,18.72-3.67-19.12-3.46,19.21-3.68-19.24c-1.01,6.71-1.8,12.65-3.44,19.41l-3.62-19.13-3.42,18.97-3.55-18.85-3.72,18.9-3.13-17.19-3.84,17.45-1.41-6.49-21.41,50.37c-8.07-.36-16.19.64-24.18-.3-6.59-2.73-12.51-7.28-19.02-11.18l19.38,2.82-16.75-10.51,19.21,3.92-16.19-10.04,19.26,3.94-16.73-10.35,18.82,3.67-16.22-10.06,19.37,3.92-16.74-10.37,19.43,4-16.3-10.22,18.97,3.85-16.22-10.09,19.41,3.96c-5.51-3.41-11.03-6.43-16.87-10.46l19.67,4.12-16.89-10.19,19.52,3.95-16.82-10.31,19.57,4.04-16.95-10.32,18.96,3.61-16.47-10.28,19.8,4.32-16.78-10.52,19.05,3.88-16.38-10.25,19.11,3.94-16.38-10.28,19.61,4.08-16.99-10.46,19.69,4.09-17.32-10.29c6.7.36,13.23,3.11,19.45,3.87l-16.51-10.46,19.76,4.37-16.94-10.67,19.59,4.31-17.19-10.63,19.84,4.26-16.5-10.27,16.59,3.51-14.5-8.64,19.5,3.73-16.59-9.35,18.34,3.05-15.61-8.93,19.14,3.53-16.52-9.4,15.08,1.27-12.61-7.22,13.45.44-10.51-6.27,16.99,2.45-14.77-8.6h46.83s-14.63,8.45-14.63,8.45l17.25-2.31-11.04,6.27,13.56-.46-12.65,7.27,15.12-1.44-16.95,9.64,19.61-3.78-16.79,9.51c6.47-.96,12.21-2.84,19.14-3.45l-16.55,9.39,20.05-3.98-15.11,8.9,17.76-3.99-17.7,10.68,19.94-4.36-16.67,10.59c6.9-1.15,12.61-2.92,19.18-4.38-.61.75-1.37,1.46-2.14,1.93l-14.47,8.71,19.71-4-17.05,10.43c6.96-.94,13.18-3.65,19.53-3.86l-16.72,10.13,19.54-3.93-17.02,10.34,19.64-4-16.8,10.26,20-4.05-17.86,10.63,20.02-4.21-16.83,10.49,19.76-4.11-17.41,10.51,11.03-2.48c3-.68,5.66-1.31,8.99-1.81-.68.71-1.29,1.3-2.01,1.72l-14.9,8.75,19.62-3.97-17.01,10.44,19.87-4.25-17.06,10.45,19.37-4.01c-5.32,3.89-11.02,6.79-16.73,10.39l19.56-3.93-16.85,10.16,19.53-3.92-16.65,10.16,19.82-3.91-16.8,10.15c6.1-.61,12.25-3,19.34-3.65l-16.66,10.05,18.57-4.01.57.55-16.13,9.75,19.11-3.79-16.79,10.39,19.97-4.3-17.06,10.64,19.77-2.9c-6.51,3.39-12.29,8.87-19.27,11.03-8.14,1.79-16.83-.16-25.46.63l-21.83-50.84-1.49,6.56-3.79-17.47-3.22,17.37-3.73-18.48-3.45,18.53-3.55-19.17-3.63,19.21ZM313.64,344.21l-17.43-40.68-17.34,40.7,34.77-.03Z"/>
  <path d="M481.08,426.82c-7.77,1.62-14.9,4.33-22.61,4.85-11.19.77-21.97.11-33.48.21l19.17-6.07-18.73-1.92,19.6-4.79-19.58-4.06,15.57-2.63-15.57-2.19,6.25-1.97-.42-54.18-5.32-.58,15.5-3.12-15.53-1.34,14.24-3.59-16.07-1.81,14.21-3.65-14.15-.44c6.17-2.14,11.99-2.63,18.2-4.3l-16.9-1.37,16.79-3.53-16.72-1.43,3.69-4,.17-30.08c1.39,5.44,1.38,10.89,2.31,16.35l2.66-17.34,2.83,11.95c.59-6.64-.71-12.83-2.26-18.97l-2.41,13.22-4.6-23.67-6.92-1.05,17.8-3.65-17.01-2.16,16.49-4.39-19.13-2.29,18.66-5.39-19.1-3.55,20.43-2-18.28-6.01,30.84-.05c7.36-.01,14.22-.1,21.7.27l-16.86,4.69,20.65,1.85-22.03,4.64,21.97,2.72-20,4.44,16.81,1.96-16.47,3.72,19.19,1.11-8.3,2.25-.19,29.14-2.56-15.99-2.79,16.08-2.41-10.98c-.64,6.45.44,12.38,2.08,18.6l3.05-13.77,4.86,28.38,7.54.32-18.28,4.19,18.32,1.69-17.8,3.16,17.79,1.11-19.04,4.05,18.55,1.89-17.33,3.35,14.7,1.57-14.27,3.22,16.83.87-8.12,1.53,4.65,49.18-18.23,3.35,22.31.38-16.5,5.12,18.22,3.73-17.18,4.22,18.54.82-20.5,5.88,20.46,2.24ZM447.32,309.61c.95-9.75.04-15.01-1.7-22.67-1.79,12.36-1.78,12.21,1.7,22.67ZM452,311.03c1.36-12.35,2.73-12.23-1.99-22.88-.72,9.44.36,14.65,1.99,22.88ZM456.96,306.67c1.73-8.66,1.1-9.4-1.02-17.18-1.14,8.41-.46,9.61,1.02,17.18ZM441.64,309.31c.55-6.19.11-12.37-1.51-18.39-1.76,9.8-.6,9.53,1.51,18.39ZM466.48,378.22l2.2-26.09-5.24.76,3.03,25.33ZM459.87,372.88l.69,8.81,1.94-28.55-4.12.8,1.49,18.94ZM435.93,353.98h-3.9s1.82,5.92,1.82,5.92l2.08-5.92ZM439.37,354.09c-1.12-.07-2.11-.07-2.7,0l2.33,16.8.37-16.8ZM444.33,354.26l-4.44-.2,4.18,20.02.27-19.82ZM450.88,354.27h-4.7s4.09,22.89,4.09,22.89l.61-22.89ZM456.3,354.24l-3.92.15,2.73,24.17,1.19-24.32Z"/>
  <g>
    <g>
      <path d="M682.09,431.47c-.69.6-2.07.65-3.25.38l-2.09-22.79-2.28-.03c.39,1.83.77,3.4.96,5.18l1.88,17.64c-1.17.07-2.18.04-3.31-.14l-2.44-21.77c-.04-.33.07-1.24.15-1.5s.57-.27,1.39-.45l-2.43-23.13c2.12-.08,3.38,1.61,3.61,3.57l2.22,19.18c.03.27.46.94.64.84s.65-.67.63-1.04l-1.66-22.05c.85-.52,2.28-.53,3.06-.18l.99,9.91.98,12.63-1.16,1.78,2.1,21.98Z"/>
      <path d="M652.7,415.07l1.72,16.64c-.96.34-2.27.32-3.35,0l-2.31-22.35c-.03-.28.03-1.18.25-1.18h1.17s-2.16-23.48-2.16-23.48c2.8.57,3.35,2.41,3.58,4.29l1.03,8.42.95,10.64c.04.41-1.49.99-1.86,1.01.36,1.74.75,3.76.98,6.02Z"/>
      <path d="M687.99,431.54c-.41.66-2.94.68-3.11-.04l-2.49-23.32h1.76s-2.53-23.26-2.53-23.26c1.75.19,3.29,1.64,3.49,3.49l2.21,20.29-2.1.32c-.4.06.44,1.2.48,1.62l2.28,20.9Z"/>
    </g>
    <g>
      <path d="M542.17,431.91l2.16-17.96c.2-1.65.76-3.31,1.28-4.89l-2.57-.22,2.68-20.43c.17-1.27,1.27-2.32,2.17-3.18l-3.75-.4-2.23,22.85c.95.84,1.09,1.68.96,2.95l-2.27,21.24h-3.18s2.28-21.12,2.28-21.12c.13-1.18.25-1.77-1.15-2.44l2.46-22.95,1.95-.84c-2.44-.77-12.24.28-12.56-4.7l23.15,2.74c.09,1.46.58,2.34,1.79,3.19l-2.63,22.23,1.72.62-2.74,22.91c-.75.64-2.21.63-3.45.25l2.17-17.91c.19-1.57.66-3.09,1.12-4.74l-2.33-.47,2.22-18.06c.21-1.68.79-3.26,1.37-4.86l-3.39-.17-2.75,22.67,1.85.25-2.89,23.45h-3.47Z"/>
      <path d="M528.86,431.66c-1.01.33-2.14.36-3.46.23l2.06-18.06c.19-1.64.71-3.02,1.29-4.8l-2.63.02-2.23,22.66c-.99.31-2.33.32-3.19-.09l2.35-22.37c-.84-.62-1.37-1.45-1.26-2.44l2.47-21.78c.97-.09,1.81-.08,2.94.08l-2.14,22.16c-.04.45.45,1.08.64,1.18s.65-.57.68-.81l2.43-19c.24-1.89,1.3-3.69,3.85-3.69l-2.77,23.3,1.18.06c.23.01.41.91.38,1.15l-2.59,22.2Z"/>
      <path d="M531.46,431.78l2.06-17.82c.19-1.66.59-3.35,1.03-4.85l-2.14-.53,2.37-19.77c.24-2.03,1.57-3.74,3.75-3.99l-2.81,23.35,1.73.09-2.74,23.35c-1,.39-2.22.4-3.25.18Z"/>
      <path d="M554.2,431.73l2.33-19.06c.13-1.09.76-2.46,1.14-3.63l-2.46-.31,2.7-20.64c.21-1.63,1.84-2.94,3.45-3.2l-2.76,23.37,1.84-.53-3.03,23.77c-.7.61-1.98.56-3.22.24Z"/>
      <path d="M514.59,431.89l2.44-20.02c.12-.99,1.07-2.54,1.56-3.08l-2.98-.26,2.51-19.78c.23-1.78,1.52-3.46,3.49-3.84l-2.68,23.37c.5-.15,1.68.02,1.61.62l-2.68,22.87c-1.04.16-1.81.18-3.27.12Z"/>
    </g>
  </g>
  <path d="M590.61,293.15c-.52.34-1.73.25-2.87.19l-2.85,22.21-2.92.33-2.82,23.32,20.12,2.58.33-2.88,19.4,2.65c1.91.26,3.97,1,3.91,3.7l-23.2-2.99v2.9s22.57,2.58,22.57,2.58l.43-2.56,22.66,2.5.21-2.48,20.96,2.33c.67.07,1.73.53,2.05.94.37.49.4,2.25-.62,2.18l-21.35-1.59c-.46-.03-.97.79-.78.86s.76.31,1,.35l19.53,2.69c1.78.24,3,2.09,2.11,3.4l-22.85-2.59-.29-3.03-22.42-1.69c.27.74.57,1.19.83,1.23l19.78,2.73c.53.07,1.49.5,1.81.85.38.42.31,1.79.29,2.44l19.51,2.49c1.96.25,3.84,1.76,3.47,3.7l-22.99-2.71-.21-3.29-22.72-2.8-.47-3c-7.88-.47-15.13-1.63-23.03-1.3,4.39,2.32,20.3,2.3,23.07,4.58.42.35.44,1.7.48,2.32l20.48,2.8c1.61.22,2.86,1.8,2.36,3.37l-22.93-2.77-.19-3.18-22.73-2.82v2.66s19.82,2.5,19.82,2.5c2.06.26,3.19,1.87,3.5,3.67l22.27,2.66.3-2.55,22.26,2.42c1.07.12,1.28,3.22.14,3.12l-21.03-1.84c-.29-.03-1.01.19-1.19.24-.26.08.3.91.72.97l19.55,2.79c1.79.26,2.78,1.57,2.58,3.4l-23.01-2.6-.21-2.83-22.4-2.06c-.03.38.15,1.22.52,1.27l19.87,2.92c2.02.3,2.48,1.61,2.33,3.2l19.45,2.6c2.01.27,3.74,1.54,3.25,3.55l-22.68-2.55-.46-3.41-22.65-2.76-.29-2.76-21.64-1.93c-.31-.03-1,.15-1.17.19-.26.06.43.82.74.86l20.22,2.99c.67.1,1.87.59,2.06,1.04s.21,1.18.28,2.15l20.63,2.8c1.57.21,2.36,1.53,2.16,3.28l18.61,2.41c2.2.28,3.79,1.4,4.47,3.52l-1.33.37c.74,1.88,1.24,3.89,1.46,5.97l1.74,16.63-2.52.21c.12.18.87,1.5.94,2.15l2.35,20.67c-.95.4-2.15.43-3.29.18l-2.31-22.24c-.03-.31-.01-1.34.22-1.34l1.36.02-2.43-22.26c-.09-.79-2.42-1.05-2.66-.44l2.2,21.24c.12,1.12-.26,1.92-1.26,2.51l2.21,22.55c-1.3.1-2.18.1-3.32,0l-2.08-23.12-2.32.45c.43,1.98.83,3.68,1.03,5.67l1.66,16.76c-.85.62-2.56.6-3.39-.03l-2.22-22.07c-.02-.24.18-1.23.41-1.23h1.13s-2.42-23.22-2.42-23.22c2.04-.37,3.43,1.33,3.68,3.45l2.29,19.71c.26.41,1.43-.46,1.39-.97l-2.05-22.33-13.35-1.72-.38-3.24-22.83-2.82-.13-3.25-23.06-2.81-.42-2.57-19.86-2.65c-1.6-.21-2.7-1.59-2.77-3.49l-22.52-2.63.1,2.77,22.52,2.6.33,3.27,22.48,2.65.68,2.64,20.51,2.76c.47.06,1.5.55,1.82.87.38.39.45,1.51.58,2.44l18.83,2.45c1.76.23,3.36,1.45,4.02,2.95l-1.22.92c.68,1.63,1.23,3.51,1.43,5.43l1.79,17.11-2.34.33c.42,1.07.91,2.68,1.07,4.16l1.96,18.44c-.33.65-2.98.71-3.07,0l-2.52-22.46c-.03-.29.24-1.31.47-1.22l1.25.47-2.54-22.74-19.31-2.4-.26-3.22-22.72-2.78-.32,2.45-22.64-2.47-.18,2.58,22.55,2.74.21-2.8,20.12,2.7c1.77.24,3.4,1.56,3.45,3.54l-23.08-2.74-.51,2.82-19.65-2.67c-2.03-.28-3.29-1.71-3.61-3.7l-22.21-2.43-.04,2.59,20.53,2.49c.84.1,1.95.61,2.2,1.18s.06,2.56-.61,2.47l-18.84-2.48c-2.26-.3-3.55-1.73-3.84-3.83l-21.93-2.37c-.75-.25-1-2.34-.73-3.27l22.68,2.09-.33-1.12-20.55-3.24c-1.34-.21-2.33-2.2-1.59-3.21l22.82,2.56.21,2.92c7.51.18,15,2.25,23.06,1.57-3.71-2.82-25.5-1.58-23.61-6.86l-19.6-2.77c-1.64-.23-2.92-1.6-3.21-3.39l23.12,2.63.36,3.28,22.57,2.6.31,2.84,21.62,2.12c.36.04.79-.28.8-.43.01-.23-.45-.85-.7-.88l-19.55-2.76c-.66-.09-1.69-.43-2.02-.73-.39-.37-.46-1.35-.63-2.51l-19.38-2.65c-2.07-.28-3.36-1.62-3.75-3.7l-20.45-2.26c-.71-.08-1.86-.42-2.18-.85-.38-.5-.02-1.99.48-2.59l21.36,2.11c.41.04,1.16-.47,1.07-.66s-.51-.62-.92-.68l-19.14-2.76c-1.9-.27-3.1-1.65-2.82-3.52l23.02,2.71.33,2.85,21.36,1.96c.23.02,1.03.02,1-.18l-.14-1.03-20.32-2.89c-1.64-.23-2.43-1.59-2.39-3.32l-18.88-2.42c-2.05-.26-3.92-1.67-3.93-3.8l22.84,2.77.44,3.33,22.57,2.66.49,2.9,21.27,2c.48.05,1.21-.43,1.1-.59-.17-.24-.69-.77-1.18-.84l-19.35-2.69c-1.77-.25-2.5-1.39-2.47-3.39l-19.24-2.42c-1.92-.24-3.22-1.76-3.92-3.53l-19.45-2.77c-1.86-.26-3.23-1.82-3.11-3.51l23,2.82.16,3.25,22.74,2.8.23,3.32,22.64,2.53c-.17-.99-.38-2.01-.65-2.64l-19.04-2.32c-2.02-.25-3.13-1.84-3.69-3.56l-18.24-2.43c-1.62-.22-3-.8-3.81-1.91-.99-1.35-1.04-2.78-.82-4.54l2.01-16.13c.17-1.38.6-2.76,1.11-4.15l-2.36-.47,2.45-23.21c.46-.57,2.23-.74,2.76-.34.38,7.94-2.2,15.62-1.26,23.88,2.38-7.37,2.02-14.91,3.64-22.1-.4-.12-1.88-.8-1.86-1.2l2.24-18.44c.29-2.4,1.23-4.35,3.75-4.83l-2.61,22.11c1.34.69,1.73,1.7,1.56,3.1l-2.57,21.11-2.86.3-2.81,22.76c-.1.8,2.19,1.17,2.34.54l2.61-19.98c.26-2.03,1.42-3.32,3.24-4.28l2.64-19.81c.05-.37.66-1.54.34-1.6l-1.84-.31,2.52-23.08-2.19-.47,2.4-18.89c.27-2.1,1.31-4.16,3.59-4.95l-2.62,23,1.71,1.15-2,20.87c-.02.19.13.71.17.85.06.24,1.15-.25,1.2-.64l2.33-17.38c.18-1.37.84-2.66,1.32-3.49l-2.09-.75,2.52-21.18c.1-.85.21-1.56.38-2,.2-.53,2.58-.34,2.53.21l-2.07,21.88c-.02.21.05.91.09,1.07.05.24.87.43.97.2s.32-.86.35-1.11l2.6-19.36c.24-1.77,1.78-3.2,3.64-3.22l-2.74,23.94-3.73.08-2.43,21.43c.46.32,1.74.38,2.27.13l2.46-18.54c.28-2.12,2.01-3.21,3.91-3.87l2.5-18.56c.3-2.23.91-4.36,3.45-4.85l-.91,9.56-1.66,13.33c-.06.46.96.85,1.87,1.04l-2.05,21.48.5.68c.17.23.97-.68,1.02-1.05l1.66-13.74c.3-2.51.81-4.79,1.39-6.89l-1.53-.62,2.6-22.94c.35-.57,1.96-.74,2.82-.44l-2.14,23.17c.46.1,1.25-.19,1.31-.6l2.71-19.68c.24-1.71,1.77-3.19,3.42-3.2l-2.62,24.02-3.76.12-2.68,23.26ZM567.44,315.89l-2.62-.04-2.89,23.36-2.81.45,17.14,2,.38,3.28,22.32,2.81c.31-.44.31-1.9,0-2.66l-18.71-2.49c-2.18-.29-4.67-1.92-4.35-4.5l2.44-19.87c.19-1.57,1.7-2.78,3.16-3.32l2.78-21.44c-.67-.12-1.62-.45-1.85-.82l2.53-22.42-2.67-.24-2.57,21.36,1.95.98-2.64,23.24-3.19.26-2.66,23.41-3.5-.06,2.2-18.57c.19-1.6.83-3.48,1.41-4.65-.69-.11-1.81-.4-2.59-.79l2.3-21.16c-.28-.66-2.44-.68-2.53.06l-2.59,21.37c1.12-.08,1.86-.08,2.55.27l-2.2,23.26c-.81.63-2.53.64-3.22.11l2.44-23.18ZM575.54,314.24l2.72-20.55c-.81-.27-1.79-.64-2.14-.86l-2.06,22.26.74.26c.18.06.72-.91.74-1.1ZM622.43,365.16l.02-2.7-22.77-2.74-.24,2.61-22.51-2.57c-.38.81-.33,2.6.37,2.69l21.83,2.69.3-2.56,23.01,2.58Z"/>
  <path d="M645.58,345.21l-20.68-2.66c-.67-.09-2.09-.35-2.15-.91l-.25-2.46,2.16-.1-2.77-23.2-2.83-.3-2.77-21.9-2.85-.39,2.87,21.5c1.96,1.29,3.19,2.94,3.48,5.39l2.3,19.01c-1.03.19-2.3.2-3.18-.21l-2.81-23.11-2.52-.43c-.46-.08-.65-1.47-.7-1.96l-2.29-19.98-3.37-.13-2.47-20.5-2.32,20.2-3.3.07,2.57-19.91c.19-1.5,1.37-3.51,2.85-3.79,1.64-.31,3.07,1.48,3.27,3.03l2.47,18.9c.64.4,1.76.62,2.55.54l-2.49-21.93-3.49-.23-2.04-16.65-1.76,16.77-3.66.04-2.77,22.81c-.72.6-2.1.76-3.23.69l-2.64,21.65-2.88,1.01-2.99,22.79c-.1.74-3.07.48-3.02-.28l2.36-19.41c.24-1.96,1.52-3.29,3.16-4.19l1.8-13.33,1.43-8.5,2.57-1.66,2.66-19.11c.26-1.87,1.84-2.76,3.69-3.16l2.48-18.57c.2-1.51.78-4.09,2.07-4.62,1.99-.83,3.4,1.61,3.61,3.18l2.58,19.44c.06.43,1.1.98,1.49.71l-2.07-23.43c.98-.18,2.3.06,2.81.65l2.43,22.56c.03.51-1.74,1.07-2.02,1,.29.78.89,2.21,1.03,3.26l2.4,18.16,2.38.64-2.4-21.55c-.04-.32.08-1.12.31-1.17l1.21-.28-1.94-16.49c-.28-2.38-.45-4.65-.54-7.04,2.18.39,3.07,2.28,3.32,4.25l2.56,19.84-2.47.42c.47,1.3,1,2.78,1.18,4.05l2.4,17.8c.41-.18,1.28-.64,1.25-.96l-1.98-21.78,1.93-.22-2.46-23.12c1.95.02,3.38,1.45,3.62,3.53l2.25,19.11c.06.48.99,1.18,1.13.89.1-.19.33-.84.31-1.18l-1.86-22.15c.73-.5,2.75-.08,2.84.75l2.39,22.56-2.29.78c.3.51,1.09,1.77,1.18,2.47l2.52,19.11,2.32.6-2.29-21.73c-.02-.22.12-1.15.34-1.16l1.12-.06-2.63-23.6c2.22.65,3.39,2.83,3.65,5.02l2.29,18.75-2.59.53c.38.63,1.24,1.84,1.4,3.08l2.34,18.05c.06.45,1.3.51,1.3.22,0-.19,0-.8-.02-1.07l-1.79-21.03c.8-.48,2.47-.22,2.81.44l2.5,22.39c.03.25-.24,1.15-.47,1.18l-1.07.11,2.7,21.09c.05.41,1.41.91,1.41.54l-2.01-22.74,2.09-1.11-2.51-22.31c2.19.72,3.43,2.76,3.69,4.9l2.34,19.08-2.57.65,2.26,21.64-2.59.74c.41.72,1.13,2.28,1.25,3.32l2.25,18.65c.05.39-.28,1.18-.64,1.75l14.71,1.88c2.02.26,3.71,1.48,4,3.65l-21.07-2.58c-1.3-.16-2.13-.73-2.24-1.63-.18-1.52.24-1.98,1.92-1.91l-2.68-23.14-3.1-.57-2.38-21.64c-.96-.31-2.69-.3-2.69.18l2.67,21.3c1.86.87,3.03,2.02,3.26,3.85l2.57,20.19c-1.2.18-2.34.13-3.32-.36l-2.69-22.35c-.06-.48-1.02-.95-1.44-.98-.35-.03-1.23.44-1.18.92l2.3,22.7c-1.25.17-2.27.13-3.3-.22l-1.97-23.55,2.3.05-2.34-21.54c-.12-.64-2.25-.82-2.68-.38l2.21,21.98-2.09.39c.43,2.13.96,4.76,1.26,7.22l1.94,16.23-3.48-.21-2.7-23.3-3.06-.32-2.67-22.12-2.6.19,2.84,21.18c1.51.73,2.85,2.07,3.03,3.79.76,6.98,2.26,13.51,2.24,20.96l15.07,2.11c1.86.26,3.51,1.95,2.87,3.5ZM629.55,315.03l-2.01-22.98,2.24-.63-2.59-21.42c-.79-.07-2.08,0-2.63.16l2.48,22.95-1.59.35,2.57,20.34c.05.37.28,1.11.42,1.41.12.25.76.02,1.1-.17Z"/>
  <path d="M655.73,315.9h-2.58s2.39,23.19,2.39,23.19c-.89.35-2.02.32-3.24.05l-2.13-23.6,2.5-.55-2.58-23.11c2.17.21,3.37,2.4,3.6,4.38l2.19,18.47c2.19,1.21,3.36,3.23,3.67,5.82l2.22,18.56c-.78.49-2.14.51-3.32.16l-2.71-23.37Z"/>
  <path d="M547.96,315.66l-2.82,23.4c-.69.55-2.28.45-3.14-.07.68-6.99,1.48-13.63,2.54-20.47.25-1.6,1.79-2.84,3.18-3.52l2.43-19.16c.24-1.91,1.69-3.57,3.57-4.13l-2.72,23.31,2.49.59-2.13,23.58c-1.03.26-2.25.2-3.18-.21l2.33-23.04c-.6-.12-1.68-.23-2.56-.28Z"/>
</svg>