<?xml version="1.0" encoding="UTF-8"?>
<svg id="Layer_1" data-name="Layer 1" xmlns="http://www.w3.org/2000/svg" viewBox="0 0 708.66 708.66">
  <defs>
    <style>
      .cls-1 {
        fill: #ece446;
      }

      .cls-1, .cls-2, .cls-3, .cls-4 {
        fill-rule: evenodd;
      }

      .cls-2 {
        fill: #fff;
      }

      .cls-3 {
        fill: #d12433;
      }
    </style>
  </defs>
  <g>
    <path class="cls-3" d="M463.83,449.22c3.11-7.36,11.61-9.26,17.55-13.17,12.21-8.02,22.3-18.27,31.42-29.23-13.43-2.06-19.32,7.8-28.49,14.63-16.6,12.31-33.16,21.38-54.82,27.77-3.01.86-8.67,3.81-11.7,0,1.59-5.77,8.27-6.95,12.42-9.51,12.66-7.82,24.82-18.63,32.9-32.15h-192.22c-2.41,19.62-12.75,38.69-29.96,48.97-4.63,2.75-15.74,7.98-19,7.3-4.5-.94-9.23-13.1-11.69-17.54-4.21-7.58-7.07-12.53-9.51-19.73,7.37-5.8,19.54-6.78,20.47-19-30.92-1.69-63.81.98-96.47,0-9.54,8.15-8.8,28.99,1.46,36.54,4.67,3.43,9.59,1.83,15.35,4.38-.36,13.02.88,33.37-.73,47.51-52.72.62-78.93-36.25-70.9-89.17-17.68-4.48-31.81-14.77-33.61-35.08-3.06-34.49,0-74.81,0-115.48s-2.82-80.29,0-115.48c1.55-19.43,17.51-32.86,38-34.34,38.18-2.78,79,0,119.86,0h299.65c20.23,0,41.12,1.85,59.93,0,3.01-.3,5.7-.25,8.05-2.19,4.17.45,7.94,4.15,13.88,2.19,3.45-1.14,9.72-12.81,13.16-17.55,12.29-17,30.5-33.49,47.5-42.39,11.3-5.91,2.84,7.72,0,13.16-3.26,6.24-5.46,12.48-7.32,16.8-3.22,7.59-12.34,25.68-11.68,36.55.36,6.13,7.89,10.26,10.22,15.35,7,15.19,3.66,46.36,3.66,70.16v114.73c0,38.72,5.39,76.24-20.46,89.18-4.89,2.46-11.3,3.88-16.81,4.38-12.12,1.09-26.76-3.19-40.94,0-5.71,1.3-14.28,9.88-20.45,13.89-13.63,8.84-27.9,17.07-44.59,23.39-6.78,2.56-14.83,6.97-24.11,5.12ZM598.28,80.85c-31.29,36.09-52.46,96.67-49.67,162.99,1.07,25.39,5.25,46.13,2.94,68.71-6.85,66.51-35.26,107.69-84.06,135.21,37.66-10.21,69.33-29.15,95.01-54.82,24.44-24.44,43.91-60.23,46.76-103.05,2.08-30.56-5.1-55.57-5.1-83.31,0-65.01,12.36-118.72,35.08-158.62-16.69,7.76-29.94,20.24-40.94,32.89ZM421.44,447.76c60.64-16.75,113.7-56.69,119.13-132.3,1.32-18.4-2.88-37.49-4.38-56.27-4.94-61.51,5.2-113.44,27.03-152.02-29.15,14.41-44.67,34.7-57.73,65.04-12.58,29.15-20.46,65.08-17.55,105.26.84,11.29,3.68,23.85,3.68,38.72,0,25.91,1.98,48.25-27.05,42.4v-76.75h-44.59c-.69,23.43,1.57,49.79-1.46,70.88-3.64,4.16-9.3,6.29-17.54,5.86v-75.29h-43.84v75.29c-5.13-.49-12.17.96-16.07-.74v-72.36h-43.87c-.48,24.12.98,50.19-.73,73.1-9.01-.49-19.97.98-27.78-.74v-83.32h-44.58v65.78c0,38.34,10.06,82.1-21.2,86.97,7.06,10.74,11.62,23.96,19.73,33.64,25.57-8.06,42.57-24.67,45.32-55.55h200.25c-11,18.72-27.43,32.01-46.77,42.39ZM298.65,231.41v40.2h43.86c-.48-13.16.98-28.26-.72-40.2-11.55.09-29.18-.06-43.14,0ZM357.85,231.41v40.2h43.84v-39.47c-10.2-1.76-34.65-.07-43.84-.73ZM419.97,231.41c-.77,8.38,1.17,28.48-.72,40.2h44.58c-.48-13.17.96-28.24-.73-40.2h-43.13ZM146.63,262.83c-32.03,1.11-56.91,27.45-57.74,62.86-.15,6.25.68,14.34,1.45,21.93.73,7.07,4.15,16.96,2.93,22.66-1.02,4.77-10.53,10.98-13.89,16.8-26.06,45.27,4.36,112.25,59.93,105.99v-43.13c-23.9,3.8-30.34-32.41-16.08-44.58h62.86v-46.77h-60.67c-.06-19.8-1.76-39.34,12.44-45.33,8.86-3.73,22.31-1.43,29.24,4.4,8.98-10.74,19.82-19.64,27.76-31.43-12.16-15.51-27.98-24.1-48.24-23.4Z"/>
    <path class="cls-2" d="M639.22,47.96c-22.71,39.89-35.08,93.6-35.08,158.62,0,27.74,7.18,52.75,5.1,83.31-2.85,42.82-22.32,78.61-46.76,103.05-25.68,25.68-57.35,44.61-95.01,54.82,48.8-27.52,77.22-68.7,84.06-135.21,2.31-22.58-1.86-43.32-2.94-68.71-2.78-66.32,18.38-126.9,49.67-162.99,11-12.64,24.25-25.13,40.94-32.89Z"/>
    <path class="cls-1" d="M341.78,231.41c1.7,11.94.24,27.04.72,40.2h-43.86v-40.2c13.95-.06,31.59.09,43.14,0Z"/>
    <path class="cls-1" d="M401.69,232.14v39.47h-43.84v-40.2c9.19.66,33.64-1.03,43.84.73Z"/>
    <path class="cls-1" d="M463.1,231.41c1.69,11.96.25,27.03.73,40.2h-44.58c1.89-11.72-.05-31.82.72-40.2h43.13Z"/>
    <path class="cls-2" d="M194.87,286.23c-7.94,11.79-18.78,20.69-27.76,31.43-6.93-5.82-20.38-8.13-29.24-4.4-14.19,5.99-12.5,25.53-12.44,45.33h60.67v46.77h-62.86c-14.26,12.18-7.82,48.38,16.08,44.58v43.13c-55.57,6.26-85.99-60.73-59.93-105.99,3.35-5.82,12.86-12.03,13.89-16.8,1.22-5.7-2.2-15.59-2.93-22.66-.77-7.59-1.6-15.68-1.45-21.93.83-35.41,25.71-61.74,57.74-62.86,20.26-.7,36.08,7.88,48.24,23.4Z"/>
    <path class="cls-4" d="M298.65,418.51c1.08,3.35-.4,5.71-3.65,6.58-.12-2.06.64-5.01-1.46-5.11-2.65,2.91,11.1,17.1-1.45,18.99-3.96.6-6.56-1.7-8.04-5.11-.11-2.06,2.07-1.83,2.92-2.92,3.01.17,1.78,4.55,4.38,5.11,4.97-3.98-4.59-6.55-5.11-10.96-.73-6.24,5.29-10.23,12.42-6.58Z"/>
    <path class="cls-4" d="M306.7,417.04c.28,3.45-.07,6.28-3.66,5.86-.07-3.22.12-6.2,3.66-5.86Z"/>
    <path class="cls-4" d="M371.01,438.24c2.57-2.54,5.41-4.81,6.57-8.77-.95-.54-5.47,1.96-7.3-.72-.97-8.2,4.99-12,11.69-10.24,6.28,7.57-1.04,19.49-10.96,19.73ZM378.32,428.01c.91-1.62,1.76-8.23-.73-8.75-2.42,1.15-3.85,8.82.73,8.75Z"/>
    <path class="cls-4" d="M406.82,433.13c1.61,1.62,3-.72,5.85,0,.6,5.96-8.86,6.3-12.42,3.66,2.55-4.72,9.16-8.59,6.57-16.08-2.42.26-1.15,4.2-1.45,6.57-5.59.14-3.29-6.57-1.48-8.77,13.38-3.6,8.89,10.89,2.93,14.62Z"/>
    <path class="cls-4" d="M362.96,424.37c-.2-1.53-1.95,1.05-2.91-.73,1.34-3.3,4.45-4.81,8.77-5.12-2.38,7.6-1.06,18.93-10.23,19.73-.22-6.31,3-9.17,4.38-13.88Z"/>
    <path class="cls-4" d="M398.78,418.51c1.59,4.09-6.32,7.68-.72,8.77-3.46,2.89-5.53,7.15-8.04,10.97h-4.4c.94-4.02,4.07-5.7,1.47-9.49,2.96-1.67,5.91-3.36,6.57-7.3-2.91-.25-4.05,1.29-7.3.72-.33-5.69,7.65-3.08,12.42-3.66Z"/>
    <path class="cls-4" d="M342.51,434.59c1.77,2.31,4-3.71,5.85-1.46-1.31,3.81-5.01,5.23-10.24,5.11-4.46-7.14,2.71-17.06,10.24-14.61,1.11,6.72-2.1,9.11-5.85,10.96ZM341.05,433.13c3.01.07,4.62-5.08,2.92-7.3-1.36,2.04-2.06,4.77-2.92,7.3Z"/>
    <path class="cls-4" d="M303.77,423.63c1.18-.21,1.25.69,2.19.73,1.61,4.69-.17,11.88-3.65,13.88-4.99-2.82-.85-12.14,1.46-14.61Z"/>
    <path class="cls-4" d="M314.74,423.63c.76,2.06.76,3.05,0,5.12,2.14,1.37,2.87-4.9,7.3-3.66,1.88,3.89-.96,8.18.74,12.43-.6.62-2.01.43-2.2,1.45-2.63-.78-4.09-2.72-3.65-6.57-3.49,1.39-3.19,6.54-8.03,6.57-1.29-5.54-.02-14.53,5.85-15.34Z"/>
    <path class="cls-4" d="M334.47,423.63c1.38,2.69.4,5.83-2.93,5.84-.31-1.51.5-1.93.74-2.92-2.35.88-3.59,5.74-2.19,8.04,2.75,1.23,3.32-3.39,4.38-1.46-.26,5.13-7.27,7.42-10.23,3.66-.12-7.91,2.89-12.7,10.23-13.16Z"/>
    <path class="cls-2" d="M468.21,405.36h-200.25c-2.75,30.88-19.74,47.49-45.32,55.55-8.12-9.68-12.67-22.9-19.73-33.64,31.26-4.87,21.2-48.63,21.2-86.97v-65.78h44.58v83.32c7.81,1.72,18.76.26,27.78.74,1.71-22.91.25-48.97.73-73.1h43.87v72.36c3.9,1.7,10.95.26,16.07.74v-75.29h43.84v75.29c8.24.43,13.9-1.7,17.54-5.86,3.03-21.1.77-47.45,1.46-70.88h44.59v76.75c29.03,5.84,27.05-16.49,27.05-42.4,0-14.87-2.84-27.43-3.68-38.72-2.91-40.17,4.97-76.1,17.55-105.26,13.06-30.33,28.58-50.62,57.73-65.04-21.84,38.58-31.97,90.5-27.03,152.02,1.5,18.78,5.69,37.87,4.38,56.27-5.43,75.61-58.49,115.55-119.13,132.3,19.34-10.38,35.77-23.68,46.77-42.39Z"/>
  </g>
  <path class="cls-4" d="M575.06,526.73c1.87.71,1.58,3.56,2.21,5.51-3.11.38-5.24,1.75-8.26,2.2,1.17,3.45,4.32,4.25,4.95,7.16,2.46,11.39-11.79,14.09-19.83,8.82-1.11-2.56-.11-7.23-2.76-8.27-3.01,1.03-1.13,6.95-1.65,10.48h-6.06c-5.52-17.4,16.18-23.27,15.43-6.62,3.05-.26,7.39.79,8.81-1.1-.39-6.24-9.76-6.75-5.51-14.33,4.19-1.31,8.33-2.69,12.67-3.85Z"/>
  <path class="cls-4" d="M97.39,527.84c.59,3.59-1.63,1.54-2.2,3.3.21,1.98,4.27.14,3.3,3.3-2.84-.56-4.8,1.82-6.61.56,1.47-2.75.31-8.15,5.51-7.16Z"/>
  <path class="cls-4" d="M108.41,528.39v24.24h-6.06v-24.24h6.06Z"/>
  <path class="cls-4" d="M147.53,528.39h6.05c-.62,8.92,2.31,21.41-4.4,24.24-13.37.24-25.88-.45-38.02,0v-6.07c2.13.11,4.06.02,5.51-.55.07-3.92-2.74-4.97-2.75-8.81,2.61.23,2.9-1.88,5.5-1.65,2.79,3.64,2.57,10.29,8.27,11.01-1.44-10.3,10.71-15.19,15.98-7.71-2.08,4.7-4.99,3.39-8.82,3.3.09.65-.12.99-.55,1.11-.14,5.1,9,3.23,12.68,2.75,1.17-4.87.26-11.86.55-17.62Z"/>
  <path class="cls-4" d="M162.95,528.39v24.24h-6.06v-24.24h6.06Z"/>
  <path class="cls-4" d="M191.6,528.39v24.24h-5.51v-24.24h5.51Z"/>
  <path class="cls-4" d="M236.23,528.39h6.05c-.95,10.42,4.2,26.97-9.92,24.24-3.23,6.18-16.03,7.82-18.18-.55-4.24-.42-4.67,3.62-7.15,6.05-2.89,2.82-6.14,3.61-9.37,5.51-1.9-.86-2.57-2.94-3.31-4.96,3.11-1.66,5.96-3.59,8.81-5.5-5-.96-8.48-3.21-8.81-7.72-.8-11.07,17.18-12.91,17.08.55,5.58-2.07,6.99-7.83,14.33-6.06,3.71.91,4.53,5.88,8.81,6.61,3.46-3.15.83-12.39,1.66-18.17ZM200.41,545.46c.89,1.13,2.76,1.28,4.96,1.1,1.25-4.87-5.75-7.08-4.96-1.1ZM220.25,550.42c.62.12.86.62,1.11,1.11,2.71.31,4.06-.72,4.41-2.76-.75-3.58-6.4-3.37-5.52,1.66Z"/>
  <path class="cls-4" d="M251.65,528.39v24.24h-6.07v-24.24h6.07Z"/>
  <path class="cls-4" d="M298.48,528.39h6.06c.37,5.69-.73,12.85.55,17.62,3.83.16,1.61-5.73,2.2-8.81h5.52c.99,1.6-1.71,8.18,1.64,8.81,3.75.62,1.67-4.57,2.21-7.16h5.5c.92.92.44,3.24.56,4.96,2.52-7.96,21.8-13.88,19.28,2.75,5.65-1.33,1.47-12.48,2.76-18.17h6.05c-.83,8.53,2.54,21.25-3.85,24.24-13.75.52-25.39-.61-36.36-.55-3.65.02-7.83,1.74-11.02-1.1-2.23-5.67-.62-15.19-1.1-22.59ZM328.24,546.56c3.18.07,6.42.18,8.27-1.1.01-7.78-7.18-2.31-8.27,1.1Z"/>
  <path class="cls-4" d="M417.49,528.39h6.06c-.93,8.43,2.71,21.44-3.86,24.24-13.37-.41-17.8-.01-31.4,0-2.17,4.62-5.9,7.68-9.36,11.01-2.45-.49-2.79-3.09-4.41-4.41-5.31,7.85-18.04,4.59-17.63-4.95.11-2.61,3.36-4.06,3.86-6.6.18-.93-1.78-4.5-1.11-7.17,1.61-6.32,11.05-7.78,14.88-1.09-1.89,2.8-5.27,2.47-7.71,2.19-1.14.16-1.1,1.47-1.66,2.21,1.48,3.47,6.18.36,9.37.55-.14,2.34,1.44,2.97,1.1,5.51-4.36,1.52-10.69,1.07-12.12,5.51.28,1.36,1.34,1.96,2.2,2.75,1.64-.2,2.73-.95,3.31-2.19,1.94.8,4.45,1.04,6.06,2.19,3.15-1.63,5.56-3.98,6.61-7.71-.33-2.06-2.53-2.24-2.75-4.41,1.65-1.1,3.44-2.07,4.4-3.86,1.99,2.27,5.16,5.92,8.81,3.31v-6.05h5.52c-.28,2.56-.97,4.8.55,6.6,3.61.67,1.75-4.13,2.2-6.6h5.51c-.17,2.45-1.24,5.07.55,6.6,3.34.41,1.87-4.01,2.21-6.6h4.95c0,2.4-.18,4.95.55,6.6,1.76-.33,1.71,1.04,2.76,0,1.29-4.77.18-11.94.55-17.62Z"/>
  <path class="cls-4" d="M433.47,528.39v24.24h-6.07v-24.24h6.07Z"/>
  <path class="cls-4" d="M485.25,528.39h5.51c1,5.47-2.47,18.2,2.75,17.62,2.54-3.71.4-12.08,1.11-17.62h6.05v9.91c3.52-2.54,12.89-4.78,15.44,1.65.67,1.72.63,3.77,0,6.61,6.89-2.08,6.66-8.59,14.87-6.61,9.89,2.4,7.56,19.47-4.41,18.18-3.47-.37-5.22-2.54-7.16-5.5-10.89-1.04-26.21,2.33-33.61-2.21-1.21-6.31-.24-14.82-.55-22.03ZM502.88,546.56c2.93,0,6.23.35,7.71-1.1.37-2.01-.37-2.93-1.1-3.86-4.19-.33-5.5,2.22-6.61,4.96ZM529.32,551.53c.95-.9,1.37-2.3,1.11-4.42-5.16-3.03-7.77,5.37-1.11,4.42Z"/>
  <path class="cls-4" d="M169.57,552.63v-6.07c2.6.22,4.59-.17,6.6-.55.33-4.19-3.89-3.82-4.41-7.16,5.35-10.61,16.96,9.86,6.62,13.78h-8.81Z"/>
  <path class="cls-4" d="M292.98,539.95c-2.75,2.86-5.27,2.1-8.82,2.2-1.79,6.02,6.72,4.66,9.92,3.86,1.72,2.02.48,2.94,1.1,6.62-8.73-1-21.93,2.46-26.44-2.76-.75-2.55-.11-6.5-2.21-7.72-3.21.83-1,7.09-1.65,10.48h-6.06c-2.12-11.16,2.56-20.01,12.67-15.43,2.88,2.07.59,9.32,5.51,9.36-1.73-10.44,12.3-15.76,15.98-6.61Z"/>
  <path class="cls-4" d="M609.22,535.55c12.89,1.87,5.26,23.65-6.06,15.98-1.1.74-2.54,1.52-4.16,1.15-3.53.36-3.52-1.82-4.69-1.33-1.63.68-2.64,1.95-5.47,1.28-2.46,4.71-5.54,8.79-10.47,11.01-.44-2.31-2.95-2.55-3.31-4.96,3.05-1.73,5.43-4.11,7.16-7.16.1-2.67-1.74-3.41-2.75-4.96,2.13-1.17,2.9-3.72,5.51-4.41.28,2.99,4.66,5.37,7.16,2.76.11-2.12.03-4.05-.55-5.5h5.51c.31,2.45-.96,6.47,1.65,6.6,2.61-.14,1.34-4.15,1.66-6.6h4.95c0,2.4-.18,4.95.55,6.6.45.56,1.35.88,2.08.88.38,0,1.69-.69,1.67-1.07.76-.46-.38-3.6-2.09-4.78.82-1.56,1.36-3.41,1.65-5.5Z"/>
  <path class="cls-4" d="M74.8,546.01c2.36.7,2.73-.04,5.51,0,1.4-2.77-.34-5.44,0-8.81h6.06v7.71c.71,1.42,4.28,1.93,5.51,1.1,2-1.3.76-5.85,1.1-8.81h5.51v12.11c-1.47.92-2.44,2.35-3.85,3.31-9.54-.69-14.22.52-23.14-.55-2.81-1.78-2.22-6.96-3.86-9.93-3.91.33-1.57,6.88-2.2,10.48h-6.06c-6.22-16.63,16.28-23.21,15.42-6.62Z"/>
  <path class="cls-4" d="M471.48,537.2c4.21,2.22,3.77,9.09,10.47,8.81.43,2.83-.77,4.01-.56,6.62h-19.27c-2.85,4.17-3.49,9.26-8.27,10.47-11.67,2.94-18.46-9.71-11.57-18.74,2.94-.18,3.29,2.22,5.51,2.75-7.27,5.48,5.16,14.7,7.17,6.07,1.15-5.01-4.09-6.11-4.96-10.47,1.37-1.19,3.4-1.74,4.4-3.3,3.07,4.83,7.13,8.67,16.53,7.16-.69-2.63-2.44-4.51-5.51-3.3-3.13-4.76-.63-7.17,6.06-6.06Z"/>
  <path class="cls-4" d="M102.9,580.73h1.1c3.05.63,1.94,5.4,2.21,8.82,8.56-6.77,17.68,6.96,12.67,17.08-6.05-2.63-.9-14.55-7.17-15.44-7.63-1.07-2.33,11.71-7.16,15.44-3.25-5.58-1.4-16.24-2.2-24.25-.16-.9.52-.95.55-1.65Z"/>
  <path class="cls-4" d="M356.33,581.28c-.73,4.95-9.85,1.53-7.71,9.36.6,1.62,4.92-.5,5.51,1.11.31,3.07-3.09,2.42-5.51,2.76-1.02,4.57,2.19,11.34-1.65,12.13-2.88-.37-1.41-3.79-1.65-6.07-1.08-10.35-1.03-22.79,11.01-19.28Z"/>
  <path class="cls-4" d="M463.22,580.73h1.1c3.69.98,2.2,7.65,2.2,12.11,0,5.02.37,10.4-1.65,12.68-14.07,7.55-19.81-13.57-8.81-17.63,2.18.2,5.27-.51,6.61.55,1.11-1.64.31-5.2.55-7.71ZM462.67,602.21c.77-2.73.54-6.44.55-9.92-11.53-7.02-12.32,16.78-.55,9.92Z"/>
  <path class="cls-4" d="M543.65,580.73h1.11c4.16,4.34,2.41,19.41.55,24.79-16.63,9.28-21.19-21.37-2.76-17.63,1.51-1.26-.37-5.88,1.1-7.16ZM543.1,601.66v-9.37c-11.68-7.02-10.96,18.11,0,9.37Z"/>
  <path class="cls-4" d="M591.58,580.73h2.21c1.05,1.32.35,4.42.54,6.61.61,1.41,3.56.48,4.41,1.65.65,3.05-2.14,2.99-3.86,2.2-2.57,6.68,1.79,11.02,3.31,15.44-7.91.55-7.59-7.11-7.72-14.34-.91-1.11-3.62-.42-3.85-2.21.02-2,1.62-2.41,3.85-2.19.79-1.98.13-5.39,1.11-7.16Z"/>
  <path class="cls-4" d="M75.36,606.07c-4.64.05-2.41-6.78-4.41-9.37-3.21.28-6.16.82-9.92.55-1.93,2.12-.89,7.19-2.75,9.38-4.61-1.02-2.45-8.81-1.11-13.23,1.55-5.09,5.28-10.28,8.27-11.58,6.47,4.23,11.4,15.72,9.92,24.25ZM61.58,593.95h7.71c-.69-2.8-1.21-5.77-3.85-6.61-2.44,1.06-2.59,4.38-3.86,6.61Z"/>
  <path class="cls-4" d="M79.76,581.82h1.65c1.02,6.24,3.95,20.13-.55,24.81-3.69-4.22-.69-18.04-1.65-23.15-.16-.89.52-.95.55-1.66Z"/>
  <path class="cls-4" d="M200.97,583.48c-3.35,4.35-11.47,1.96-12.68,8.81-.57,3.24.79,6.64,3.31,9.37,2.85,1.01,7.82-.12,8.81,2.75-1.63,3.93-7.69,2.16-9.92,1.11-12.01-5.65-4.61-30.36,10.48-22.04Z"/>
  <path class="cls-4" d="M415.28,584.58c-2.18,2.59-9.58-.03-12.67,1.65v7.72c2.37.14,8.55-2.51,8.27,1.65-.7,2.42-5.76.48-8.27,1.1-.48,3.37,1.29,9.01-1.64,9.93-4.27-4.29-1.36-17.37-1.66-22.6,2.39-2.06,14.91-4.74,15.97.55Z"/>
  <path class="cls-4" d="M480.84,597.8c-.36,3.32,1.2,8.54-2.2,8.83-2.55-5.58-2.33-18.1,0-23.7,15.76-7.88,20.87,18.31,2.2,14.87ZM481.39,585.68c-1.82,2.19-.73,5.71-.55,8.82,3.47.16,6.64.03,8.27-1.66,2.46-5.16-2.94-9.29-7.72-7.16Z"/>
  <path class="cls-4" d="M143.12,586.78h2.75v2.76c.65-.56,10.4-4.41,9.92,1.64-2.38,1.11-7.06-.08-8.26,2.21-1.78,3.92,1.89,13.28-3.86,13.23-1.41-5.08-1.61-14.13-.55-19.84Z"/>
  <path class="cls-4" d="M223,586.78c2.19-.16,2.98,1.07,2.76,3.3,1.88-3.36,10.84-2.99,11.56,1.11,8.98-10.03,20.66,4.13,14.88,15.44-5.95-1.4-.38-14.32-6.62-15.44-7.36-1.62-3.61,12.01-7.71,15.44-3.45-2.62-.69-11.44-3.86-14.34-1.44-.03-2.86-1.13-3.3-1.1-7.15.34-1.43,12.09-6.62,15.44-3.26-3.41-1.44-14.68-1.1-19.84Z"/>
  <path class="cls-4" d="M295.73,586.78c3.46-.64,2.89,1.53,3.31,2.76,1.91-2.17,7.36-2.08,9.91-.56,2.13,2.99,7.8,15.75.56,17.64-1.48-5.52-.24-13.74-5.52-15.44-6.6.56-3.46,10.86-6.05,15.44-5.29-1.74-2.19-14.67-2.21-19.84Z"/>
  <path class="cls-4" d="M376.17,586.78h2.76v3.3c1.55-2.14,10.25-4.32,9.91,1.11-10.85-3.15-6.93,10.33-11.02,15.44-4-2.84-1.98-14.51-1.65-19.84Z"/>
  <path class="cls-4" d="M497.37,586.78h2.75v3.3c1.39-1.96,10.57-4.63,9.92,1.11-11.26-2.44-6.8,10.83-11.02,15.44-4-2.84-1.98-14.51-1.65-19.84Z"/>
  <path class="cls-4" d="M99.04,591.19c-2.4,1.08-7.38-1.37-8.81,1.65,1.79,4.83,9.36,3.87,8.26,11.57-1.85,3.49-13.71,2.96-12.12-1.65,2.18-1.6,5.69,2,8.27,0-.88-5.51-8.29-4.68-8.27-9.92.03-5.19,10.19-7.89,12.67-1.65Z"/>
  <path class="cls-4" d="M135.95,595.05c-1.24-5.09-7.2-2.52-11.57-3.86-.17-1.28.09-2.11.56-2.75,14.01-6.63,19.09,12.12,11.56,17.08-11.75,7.73-19.43-14.71-.55-10.47ZM128.24,601.66c2.01,2.6,8.5,2.11,7.71-2.76-2.27-.5-9.22-2.23-7.71,2.76Z"/>
  <path class="cls-4" d="M170.66,595.6c.28-5.8-8.52-2.5-11.57-4.97,2.4-5.86,12.39-2.1,13.78,0,1.76,2.69,1.92,10.02.55,12.68-2.48,4.8-13.77,4.46-14.88-1.1-1.49-7.44,5.98-7.93,12.12-6.61ZM162.4,600c.47,4.53,9,4.36,8.26-1.1-2-.86-7.74-1.3-8.26,1.1Z"/>
  <path class="cls-4" d="M209.23,588.44c15.98-4.48,11.78,26.93-3.3,16.52-6.01-4.15-2.04-15.03,3.3-16.52ZM206.48,595.6c-.77,3.84,1.94,9.19,8.26,6.61,5.85-8.83-6.56-15.15-8.26-6.61Z"/>
  <path class="cls-4" d="M261.02,606.07c-1.65,1.84.75,7.72-1.66,8.81-3.71-.73-3.88-16.07-2.75-21.48.5-2.42,2.04-3.95,2.75-4.96,17.51-6.44,17.28,23.83,1.66,17.63ZM260.47,602.21c1.95.79,5.76.79,7.71,0,2.21-3.12.92-8.85-1.66-10.47-7.74-2.23-6.04,4.98-6.05,10.47Z"/>
  <path class="cls-4" d="M291.32,603.31c-3.75,5.71-18.67,3.96-14.32-6.06,2.38-2.21,6.7-2.48,11.57-2.2.31-5.63-12.33-1.25-11.57-5.5,8.82-5.81,17.81,1.82,14.32,13.76ZM280.3,600c.61,4.68,8.73,4.09,8.26-1.1-2.01-.86-7.74-1.3-8.26,1.1Z"/>
  <path class="cls-4" d="M317.22,587.89h2.2c1.09,4.6.28,11.11,2.75,14.32,10.38,4.56,6-10.08,9.37-14.32,3.36,1.94,3.16,10.23,2.75,15.42-.45,5.91-1.95,12.25-7.71,11.57-.01-4.42,4.08-4.74,3.86-9.36-9.74,5.24-17.83-6.79-13.22-17.63Z"/>
  <path class="cls-4" d="M362.95,588.44c10.05-2.67,14.19,13.42,6.61,17.08-12.64,6.09-18.19-14.01-6.61-17.08ZM360.75,593.4c-2.7,3.68.01,12.01,7.71,8.81,5.16-6.22-3.29-14.87-7.71-8.81Z"/>
  <path class="cls-4" d="M425.2,587.89c5.91,3.09,7.43,15.15.56,18.18-16.34,4.04-15.23-21.21-.56-18.18ZM426.85,600c2.03-5.5-3.29-8.41-4.95-8.26-12.7,1.17,1.28,18.29,4.95,8.26Z"/>
  <path class="cls-4" d="M436.22,606.07c-10.36-6.15-1.49-23.4,8.26-17.08,6.34,4.1,5.08,20.94-8.26,17.08ZM436.77,602.21c7.25,3.45,9.62-5.53,6.06-9.92-7.03-3.89-10.06,6.09-6.06,9.92Z"/>
  <path class="cls-4" d="M517.76,588.44c16.12-4.61,11.92,26.86-3.3,16.52-4.8-3.26-3.33-14.63,3.3-16.52ZM518.86,602.76c6.54,1.16,7.76-7.17,3.3-11.02-9.49-2-8.85,10.04-3.3,11.02Z"/>
  <path class="cls-4" d="M554.12,588.44c.19,6.29-.88,13.1,3.3,14.32,8.6,2.53,4.83-9.64,8.27-14.87,4.17,2.29,1.87,13.86,1.65,18.74-3.83-2.64-6.51,1.02-11.02,0-6.57-1.51-7.31-11.56-4.96-18.74,1.55-.46,1.43.77,2.76.55Z"/>
  <path class="cls-4" d="M583.32,588.99v2.2c-1.13,1.25-4.93-.16-6.06,1.1-2.61,1.85-2.25,6.41-1.1,9.37,1.74,1.56,5.25,1.34,7.71,2.2-5.08,7.42-14.43-.14-12.12-9.91,1.03-4.38,6.21-8.04,11.57-4.96Z"/>
  <path class="cls-4" d="M614.72,590.08c-.64,3.56-6.48-.71-8.27,2.21.88,5.74,8.73,4.49,8.27,11.57-1.32,3.49-13.56,4.86-12.67-1.65,2.97-.23,5.61,2.21,8.27.55-.83-5.64-7.44-3.99-7.72-9.36-.3-5.82,7.68-7.63,12.12-3.31Z"/>
  <path class="cls-4" d="M599.41,533.2c0,1.45-1.17,2.62-2.62,2.62s-2.62-1.17-2.62-2.62,1.17-2.62,2.62-2.62,2.62,1.17,2.62,2.62Z"/>
  <path class="cls-4" d="M605.53,533.2c0,1.45-1.17,2.62-2.62,2.62s-2.62-1.17-2.62-2.62,1.17-2.62,2.62-2.62,2.62,1.17,2.62,2.62Z"/>
  <path class="cls-4" d="M552.8,533.2c0,1.45-1.17,2.62-2.62,2.62s-2.62-1.17-2.62-2.62,1.17-2.62,2.62-2.62,2.62,1.17,2.62,2.62Z"/>
  <circle cx="115.27" cy="530.58" r="2.62"/>
  <path class="cls-4" d="M558.92,533.2c0,1.45-1.17,2.62-2.62,2.62s-2.62-1.17-2.62-2.62,1.17-2.62,2.62-2.62,2.62,1.17,2.62,2.62Z"/>
  <path class="cls-4" d="M602.03,527.68c0,1.45-1.17,2.62-2.62,2.62s-2.62-1.17-2.62-2.62,1.17-2.62,2.62-2.62,2.62,1.17,2.62,2.62Z"/>
  <path class="cls-4" d="M403.45,533.2c0,1.45-1.17,2.62-2.62,2.62s-2.62-1.17-2.62-2.62,1.17-2.62,2.62-2.62,2.62,1.17,2.62,2.62Z"/>
  <path class="cls-4" d="M409.57,533.2c0,1.45-1.17,2.62-2.62,2.62s-2.62-1.17-2.62-2.62,1.17-2.62,2.62-2.62,2.62,1.17,2.62,2.62Z"/>
  <circle cx="263.88" cy="530.58" r="2.62"/>
  <circle cx="270" cy="530.58" r="2.62"/>
  <circle cx="61.55" cy="530.58" r="2.62"/>
  <circle cx="67.67" cy="530.58" r="2.62"/>
  <circle cx="81.58" cy="557.77" r="2.62"/>
  <circle cx="87.7" cy="557.77" r="2.62"/>
  <path class="cls-4" d="M406.07,527.68c0,1.45-1.17,2.62-2.62,2.62s-2.62-1.17-2.62-2.62,1.17-2.62,2.62-2.62,2.62,1.17,2.62,2.62Z"/>
</svg>