<?xml version="1.0" encoding="UTF-8"?>
<svg id="Layer_1" data-name="Layer 1" xmlns="http://www.w3.org/2000/svg" viewBox="0 0 708.66 708.66">
  <defs>
    <style>
      .cls-1 {
        fill: #d2d2c5;
      }

      .cls-2 {
        fill: #d3d1c5;
      }

      .cls-3 {
        fill: #d1d0c0;
      }

      .cls-4 {
        fill: #d0cfc2;
      }

      .cls-5 {
        fill: #d1d1c5;
      }

      .cls-6 {
        fill: #d1d0c2;
      }

      .cls-7 {
        fill: #d0cfc1;
      }

      .cls-8 {
        fill: #d2d0c5;
      }

      .cls-9 {
        fill: #d1d0c3;
      }

      .cls-10 {
        fill: #d1d0c1;
      }

      .cls-11 {
        fill: #d3d3cb;
      }

      .cls-12 {
        fill: #d0cfc0;
      }

      .cls-13 {
        fill: #d2d1c4;
      }

      .cls-14 {
        fill: #d2d0c3;
      }
    </style>
  </defs>
  <rect class="cls-9" x="112.76" y="354.26" width="13.44" height="201.34" transform="translate(-335.46 574.34) rotate(-89.99)"/>
  <rect class="cls-9" x="479.39" y="448.22" width="201.31" height="13.41"/>
  <rect class="cls-13" x="18.77" y="464.68" width="201.46" height="8.84"/>
  <rect class="cls-9" x="575.62" y="368.49" width="8.76" height="201.26" transform="translate(110.52 1048.83) rotate(-89.96)"/>
  <rect class="cls-11" x="479.38" y="481.18" width="201.21" height="4.31"/>
  <rect class="cls-11" x="117.24" y="382.79" width="4.37" height="200.91" transform="translate(-363.83 602.58) rotate(-89.99)"/>
  <path class="cls-2" d="M458.1,487.19c-.12,2.15-6.9,1.67-8.38-.73l-23.53-37.99c-1.18,13.89,1.15,26.06-.63,39-.2,1.44-3.76,1.16-5.23.49l-.07-47.16c2.55-.31,6.06-1,8.22.16l24.03,38.11.57-37.71c.02-1.37,3.87-1.06,5.3-.53.04,15.24.63,29.9-.26,46.37Z"/>
  <path class="cls-5" d="M267.63,487.54c-10.11,3.31-25.12.08-25.74-11.04-.11-1.93,3.3-1.48,4.64-1.1,2.58.74,3.54,10.6,16.5,8.16,4.08-.77,6.47-2.99,7.16-6.81,1.61-9.01-11.47-10.5-17.31-12.32-6.24-1.94-10.7-7.33-9.62-13.33,1.22-6.79,6.83-10.92,13.83-11.01s14.18,1.27,17.13,8.3c.59,1.4.84,3.42-.28,3.97-6.13,3.02-3.47-5.5-12.28-7.23-4.24-.83-8.82.15-11.23,3.95-2.41,3.82.47,7.61,4.21,9.34,6.65,3.06,21.37,3.68,22.22,15.42.42,5.86-2.51,11.48-9.24,13.69Z"/>
  <path class="cls-8" d="M360.82,483.14c2.2.03,1.56,3.49.79,5.05l-29.88-.06.1-46.82c.37-1.44,4.44-.96,6.15-.53l.3,42.03,22.54.32Z"/>
  <path class="cls-14" d="M405.52,448.45c-5.71-8.28-16.73-10.28-26-6.74-8.72,3.33-13.46,12.84-13.39,22.74.08,11.05,5.54,21.75,16.71,23.91,10.11,1.96,20.51-1.69,24.72-11.57,4.12-9.68,3.67-20.06-2.04-28.35ZM401.31,475.48c-2.66,5.34-7.63,7.95-12.62,8.24-4.89.29-9.54-2.46-12.74-6.9-5.81-8.08-4.91-27.67,7.58-30.85,6.08-1.55,12.49-.6,16.29,5.03,4.69,6.96,5.41,16.65,1.49,24.49Z"/>
  <path class="cls-1" d="M306.7,441.4c-1.36-1.5-7.2-1.78-7.86.05l-16.62,45.97c1.43,1.35,5.23,1.45,6.12-.27,2.2-4.27,2.56-8.74,5.06-12.81,6.23-.45,12.17-.43,18.83-.19,2.5,5.04,3,9.79,5.73,13.59.95,1.32,4.59.58,5.99-.28l-17.25-46.06ZM295.11,468.5c1.79-7.08,3.98-13.31,7.39-20.58,3.48,6.51,5.52,12.74,8.18,20.44-5.36,1.01-9.97.65-15.57.14Z"/>
  <path class="cls-12" d="M386.53,262.29l21.97.02-.1,94.84c-.02,18.93-10.49,34.57-26.87,42.76-22.89,11.45-60.89,11.73-82.85-4.53-12.82-9.5-20.45-24.22-20.47-40.42l-.12-92.54,34.85-.17.6,96.68c.1,15.7,11.64,29.69,26,33.71s29.97-.5,38.73-12.42c6.22-8.47,8.28-18.07,8.28-28.46v-89.46Z"/>
  <path class="cls-12" d="M520.89,397.92c-16.05,10.01-42.44,11.02-59.91,6.17s-30.4-18.4-32.91-36.95l24.45.17c2.94,17.12,16.6,26.74,33.32,25.13,8.36-.81,16.97-3.03,20.3-11.59,3.59-9.24-1.02-18.73-8.28-24.77-18.59-15.48-55.67-23.31-64.55-45.68-6.43-16.19.73-33.87,16.13-42.36,16.96-9.35,37.59-11.82,56.07-5.72,16.39,5.41,28.58,18.17,32.89,34.65-6.73-.05-14.5,1.45-20.62-.42-4.25-5.71-6.41-13.15-12.54-17.87-10.06-7.75-24.23-8.93-35.48-2.97-5.59,2.97-8.67,8.36-9.23,13.38-1.73,15.35,16.51,24.94,29.16,31.28,14.16,7.1,41.4,19.22,46.93,34.89,5.89,16.69-1.07,33.53-15.74,42.68Z"/>
  <path class="cls-10" d="M266.81,390.21c1.83,4.44,1.4,9.53.24,14.48l-89.65.09-.1-142.25c6.21-.82,11.48-.45,17.41-.17l.07,127.83,72.04.02Z"/>
  <g>
    <path class="cls-6" d="M680.73,404.14c-11.73,1.36-22.63.53-34.7.29l-.41-67.45-57.11-.3-.06,67.55c-3.99.99-7.57.68-11.66-.19l.09-141.72c4.63-.24,7.77-.38,11.53.19l.12,61.91,57.1.02.27-62.14,34.8.02.05,141.84Z"/>
    <rect class="cls-7" x="561.64" y="261.47" width="12.1" height="143.31" transform="translate(-1.5 2.57) rotate(-.26)"/>
  </g>
  <rect class="cls-4" x="161.49" y="261.33" width="11.94" height="143.42"/>
  <rect class="cls-3" x="20.37" y="261.27" width="11.83" height="143.49"/>
  <path class="cls-12" d="M130.51,339.47c-4.45-3.7-9.12-5.82-15.11-8.75,6.04-6.59,16.02-10.53,18.9-21.25,4.44-16.53-2.3-31.18-17.05-38.86-9.59-5.01-20.51-8.21-31.83-8.26l-49.3-.19.12,142.57h54.6c16.77,0,32.83-5.44,43.85-17.68,12.27-14.95,10.47-35.39-4.18-47.59ZM100.27,300.96c-.01,13.15-8.79,22.69-21.67,23.21-8.09.33-16.15.12-24.8.03l-.17-48.65c17.76-1.33,46.66-.66,46.63,25.42ZM101.66,379.57c-6.23,8.38-16.67,10.62-26.06,10.59l-21.91-.08.1-52.01c14.29-.54,34.58-1.96,44.98,8.27,8.43,8.3,10.34,23.22,2.89,33.23Z"/>
</svg>